<svg xmlns="http://www.w3.org/2000/svg" xmlns:xlink="http://www.w3.org/1999/xlink" width="370" height="459" viewBox="0 0 370 459">
  <defs>
    <clipPath id="clip-path">
      <rect id="Rectangle_298" data-name="Rectangle 298" width="370" height="459" transform="translate(-10482 5008)" fill="#fff" stroke="#f3f3f3" stroke-width="1"/>
    </clipPath>
    <clipPath id="clip-path-2">
      <rect id="Rectangle_305" data-name="Rectangle 305" width="370" height="630" transform="translate(175 1637)" fill="#fff" stroke="#f3f3f3" stroke-width="1"/>
    </clipPath>
  </defs>
  <g id="blog-bg" transform="translate(10482 -5008)" clip-path="url(#clip-path)">
    <g id="Mask_Group_34" data-name="Mask Group 34" transform="translate(-10657 3200)" clip-path="url(#clip-path-2)">
      <path id="Path_746" data-name="Path 746" d="M3209,536.043a176.145,176.145,0,0,0-23.665-30.065,358.175,358.175,0,0,0-40.484-36.22q-19.149-14.371-49.235-27.495T3045.3,421.655q-20.25-7.494-84.782-27.476t-108.859-51.849A114.344,114.344,0,0,1,2839,331.8l-1,406.4h248c24.428,19.5,38.769,1.275,43.483,34.6H3209Z" transform="translate(-2664 1529.599)" fill="#fff"/>
      <g id="Group_299" data-name="Group 299" transform="matrix(0.996, 0.087, -0.087, 0.996, -1194.101, 1385.01)" opacity="0.09">
        <path id="Path_748" data-name="Path 748" d="M1786.2,499.8q-61.251-156.112-189.759-156.131-56.465,0-84.07,19.816-27.642,19.817-27.623,49.841,0,18.016,8.407,28.224,8.388,10.217,13.211,15.012,4.785,4.813,15.614,10.208,10.808,5.4,18.015,8.407t22.218,7.806q15,4.814,22.219,6.005,81.658,20.436,117.7,35.43a402.4,402.4,0,0,1,68.457,36.631q66.037,45.657,66.056,147.123,0,101.5-60.051,153.729-60.069,52.244-164.537,52.244-74.481,0-144.121-34.83-14.412-9.6-22.819-9.607-26.431,0-51.643,44.437" transform="translate(-10.67 -20.451)" fill="none" stroke="#adaeb0" stroke-width="5"/>
        <path id="Path_749" data-name="Path 749" d="M1393.474,899.547c16.369-25.731,33.226-38.1,50.528-36.418,5.585.542,13.073,4.183,22.451,10.694a308.017,308.017,0,0,0,35.191,16.578,297.748,297.748,0,0,0,110.262,20.93q105.614,0,161.911-53.858a146.4,146.4,0,0,0,34.084-49.584q17.847-41.9,14.171-99.953c-.435-7.3-1.17-14.374-2.14-21.22-7.583-53.542-30.54-93.695-69.371-120.4q-2.534-1.682-5.085-3.33a535.394,535.394,0,0,0-62.356-34.409c-18.73-8.827-46.057-18.976-81.866-30.918-9.307-3.1-19.132-6.391-29.543-9.658q-6.671-1.826-20.6-7.025a188.613,188.613,0,0,1-20.445-8.711c-4.354-2.289-9.852-5.271-16.44-9.016q-9.895-5.591-14.108-10.588c-2.8-3.344-6.776-8.333-11.707-15.1-4.964-6.808-7.191-16.152-6.665-27.842.889-19.751,10.81-36.111,29.4-49.066q28.544-19.729,84.922-19.729,77.219,0,131.176,56.282a255.347,255.347,0,0,1,26.632,32.681c4.82,6.922,9.6,13.935,13.924,21.315,6.6,11.275,12.65,23.319,18.476,35.943" transform="translate(-10.67 -19.283)" fill="none" stroke="#adaeb0" stroke-width="5"/>
        <path id="Path_750" data-name="Path 750" d="M1393.474,884.944c15.925-21.851,32.462-31.721,49.413-28.4,5.591,1.1,12.935,5.157,22.082,11.783a279.225,279.225,0,0,0,35.068,17.85,284.847,284.847,0,0,0,111.719,22.338c71.16,0,124.374-18.365,159.283-55.471a131.126,131.126,0,0,0,29.81-49.641c9.337-27.071,11.408-58.952,6.649-95.705-.9-6.922-2.056-13.62-3.427-20.112-10.733-50.839-34.9-89.576-73.539-116q-2.534-1.677-5.08-3.322c-20.151-13.023-40.72-24.622-61.343-35.525-18.384-9.719-44.365-20.947-77.667-34.575-8.72-3.568-17.816-7.415-27.453-11.148q-6.137-2.472-18.978-8.046a131.167,131.167,0,0,1-18.672-9.617c-3.9-2.576-8.885-5.753-14.865-9.623s-10.209-7.495-12.6-10.968c-2.405-3.489-5.945-8.469-10.2-15.18-4.331-6.827-5.965-16.1-4.921-27.461,1.79-19.509,12.377-35.662,31.174-48.289,19.6-13.168,48.235-19.642,85.773-19.642q75.993,0,130.518,54.371a269.091,269.091,0,0,1,27.179,31.143c4.963,6.518,10.023,12.766,14.357,19.334,6.645,10.071,12.633,20.7,18.606,31.466" transform="translate(-10.67 -18.117)" fill="none" stroke="#adaeb0" stroke-width="5"/>
        <path id="Path_751" data-name="Path 751" d="M1393.474,870.341c15.48-17.971,31.721-25.3,48.3-20.382,5.605,1.662,12.8,6.132,21.714,12.87a257,257,0,0,0,34.945,19.122q53.007,23.745,113.175,23.745c71.91,0,124.31-18.862,156.656-57.085,13.054-15.427,21.487-32.058,25.537-49.7,6.774-26.206,6.274-56.646-.873-91.457-1.343-6.539-2.941-12.862-4.714-19-13.881-48.111-39.263-85.457-77.707-111.6q-2.535-1.671-5.076-3.314c-20.175-13.051-40.47-24.938-60.331-36.642-18.038-10.629-42.7-22.954-73.469-38.231-8.14-4.041-16.5-8.437-25.363-12.639-3.735-2.077-9.54-5.075-17.358-9.065a94.931,94.931,0,0,1-16.9-10.522c-3.45-2.857-7.922-6.227-13.291-10.232s-9.106-7.742-11.1-11.347c-2.009-3.639-5.114-8.62-8.7-15.265-3.7-6.862-4.729-16.047-3.179-27.079,2.707-19.279,13.976-35.171,32.95-47.513,20.2-13.142,49.14-19.555,86.625-19.555q74.767,0,129.859,52.46c10.375,9.4,19.3,19.529,27.725,29.605,5.116,6.118,10.435,11.585,14.79,17.352,6.683,8.853,12.616,18.076,18.735,26.988" transform="translate(-10.67 -16.95)" fill="none" stroke="#adaeb0" stroke-width="5"/>
        <path id="Path_752" data-name="Path 752" d="M1393.474,855.737c15.036-14.09,30.986-18.823,47.184-12.364,5.622,2.242,12.66,7.106,21.345,13.958a239.812,239.812,0,0,0,34.821,20.394q52.993,25.153,114.631,25.151c72.661,0,124.243-19.374,154.029-58.7,12.08-15.948,19.063-32.609,21.263-49.756,4.213-25.34,1.151-54.331-8.395-87.207-1.787-6.155-3.826-12.1-6-17.9-17.019-45.353-43.626-81.338-81.875-107.205q-2.535-1.665-5.073-3.306c-20.2-13.078-40.215-25.277-59.318-37.758-17.693-11.559-41.049-25.009-69.27-41.888-7.567-4.526-15.185-9.461-23.273-14.129-3.378-2.507-8.651-5.834-15.737-10.086-7.122-4.273-12.045-8.206-15.126-11.428-2.995-3.13-6.959-6.7-11.716-10.84-4.742-4.127-8-7.992-9.592-11.727-1.612-3.791-4.279-8.786-7.2-15.348-3.072-6.914-3.48-16-1.436-26.7,3.64-19.056,15.578-34.674,34.725-46.737,20.808-13.11,50.045-19.469,87.477-19.469q73.54,0,129.2,50.55c10.746,9.175,19.784,18.871,28.272,28.067,5.28,5.721,10.837,10.392,15.222,15.371,6.71,7.619,12.6,15.454,18.865,22.51" transform="translate(-10.67 -15.782)" fill="none" stroke="#adaeb0" stroke-width="5"/>
        <path id="Path_753" data-name="Path 753" d="M1393.474,841.134c14.591-10.209,30.249-12.305,46.069-4.346,5.64,2.838,12.522,8.08,20.977,15.045a226.112,226.112,0,0,0,34.7,21.666q52.981,26.562,116.089,26.558c73.411,0,124.167-19.9,151.4-60.313,11.1-16.475,16.639-33.16,16.988-49.813,1.652-24.474-3.958-52.009-15.916-82.959-2.229-5.768-4.707-11.335-7.288-16.79-20.138-42.566-47.988-77.219-86.043-102.808q-2.535-1.658-5.068-3.3c-20.224-13.105-39.953-25.638-58.307-38.873-17.342-12.506-39.408-27.119-65.072-45.544-7-5.024-13.869-10.484-21.182-15.619a127.962,127.962,0,0,0-14.117-11.106c-6.4-4.546-10.7-8.787-13.353-12.333a125.853,125.853,0,0,0-10.14-11.448c-4.124-4.255-6.9-8.244-8.088-12.107-1.213-3.946-3.435-8.969-5.691-15.432-2.438-6.984-2.219-15.957.306-26.316,4.592-18.839,17.186-34.171,36.5-45.96,21.419-13.073,50.949-19.381,88.329-19.381q72.315,0,128.542,48.639c11.117,8.945,20.291,18.207,28.818,26.529,5.455,5.324,11.223,9.184,15.656,13.39,6.713,6.369,12.583,12.831,18.994,18.031" transform="translate(-10.67 -14.616)" fill="none" stroke="#adaeb0" stroke-width="5"/>
        <path id="Path_754" data-name="Path 754" d="M1393.474,826.531c14.147-6.329,29.5-5.75,44.954,3.672,5.653,3.446,12.384,9.055,20.608,16.133a215.137,215.137,0,0,0,34.574,22.938q52.967,27.97,117.545,27.966c74.162,0,124.083-20.435,148.774-61.927,10.121-17.006,14.216-33.711,12.715-49.87-.91-23.609-9.053-49.682-23.438-78.71-2.668-5.382-5.586-10.567-8.575-15.683-23.229-39.756-52.35-73.1-90.211-98.411q-2.536-1.652-5.064-3.291c-20.248-13.134-39.683-26.021-57.294-39.99-16.984-13.471-37.761-29.29-60.872-49.2-6.429-5.537-12.553-11.507-19.092-17.11-2.665-3.366-6.879-7.36-12.5-12.126a51.53,51.53,0,0,1-11.58-13.238,99.081,99.081,0,0,0-8.565-12.056c-3.506-4.381-5.793-8.5-6.582-12.487-.812-4.1-2.578-9.169-4.188-15.516-1.793-7.072-.945-15.914,2.049-25.934,5.564-18.625,18.8-33.663,38.277-45.185,22.033-13.031,51.853-19.294,89.18-19.294q71.091,0,127.885,46.729c11.488,8.715,20.821,17.534,29.364,24.99,5.644,4.925,11.584,7.964,16.088,11.409,6.681,5.11,12.567,10.21,19.123,13.554" transform="translate(-10.67 -13.448)" fill="none" stroke="#adaeb0" stroke-width="5"/>
        <path id="Path_755" data-name="Path 755" d="M1393.474,811.928c13.7-2.448,28.729.836,43.84,11.691,5.659,4.065,12.247,10.029,20.239,17.22A206.37,206.37,0,0,0,1492,865.049q52.955,29.379,119,29.373c74.912,0,123.986-20.983,146.147-63.542,9.134-17.542,11.792-34.261,8.44-49.927-3.472-22.743-14.127-47.356-30.959-74.462-3.1-5-6.46-9.8-9.862-14.576-26.286-36.928-56.713-68.98-94.379-94.012q-2.536-1.647-5.061-3.283c-20.272-13.161-39.4-26.422-56.281-41.106-16.618-14.455-36.093-31.525-56.675-52.857-5.855-6.068-11.237-12.53-17-18.6-2.309-3.8-5.993-8.127-10.877-13.146a46.637,46.637,0,0,1-9.807-14.143,87.2,87.2,0,0,0-6.99-12.664c-2.889-4.5-4.684-8.756-5.077-12.866-.408-4.261-1.7-9.382-2.684-15.6-1.132-7.174.342-15.87,3.791-25.552,6.559-18.409,20.411-33.15,40.052-44.409,22.651-12.984,52.758-19.207,90.031-19.207q69.864,0,127.227,44.818c11.859,8.486,21.375,16.85,29.911,23.452,5.845,4.521,11.914,6.737,16.521,9.427,6.6,3.853,12.551,7.588,19.253,9.075" transform="translate(-10.67 -12.281)" fill="none" stroke="#adaeb0" stroke-width="5"/>
        <path id="Path_756" data-name="Path 756" d="M1393.474,797.324c13.258,1.432,27.938,7.443,42.725,19.709,5.656,4.692,12.109,11,19.871,18.308a199.32,199.32,0,0,0,34.328,25.482q52.94,30.787,120.458,30.78c75.663,0,123.877-21.539,143.52-65.155,8.144-18.081,9.369-34.812,4.166-49.984-6.033-21.878-19.182-45.037-38.481-70.213-3.534-4.611-7.328-9.023-11.149-13.469-29.3-34.092-61.075-64.861-98.547-89.615q-2.537-1.64-5.056-3.275c-20.3-13.189-39.107-26.841-55.269-42.222-16.238-15.454-34.387-33.816-52.475-56.513-5.271-6.614-9.922-13.553-14.912-20.09A74.716,74.716,0,0,0,1473.4,466.9a44.626,44.626,0,0,1-8.034-15.048,84.9,84.9,0,0,0-5.415-13.273c-2.273-4.626-3.571-9.013-3.572-13.246,0-4.42-.805-9.606-1.18-15.685-.449-7.288,1.64-15.823,5.534-25.17,7.576-18.189,22.028-32.631,41.828-43.633,23.272-12.93,53.662-19.12,90.883-19.12q68.638,0,126.568,42.908c12.23,8.256,21.952,16.148,30.457,21.914,6.061,4.109,12.2,5.518,16.954,7.445,6.465,2.622,12.535,4.966,19.382,4.6" transform="translate(-10.67 -11.114)" fill="none" stroke="#adaeb0" stroke-width="5"/>
        <path id="Path_757" data-name="Path 757" d="M1393.474,782.721c12.814,5.312,27.125,14.062,41.61,27.727,5.645,5.325,11.971,11.978,19.5,19.4a193.719,193.719,0,0,0,34.2,26.755q52.927,32.2,121.914,32.187c76.414,0,123.753-22.1,140.893-66.769,7.146-18.623,6.945-35.363-.107-50.041-8.6-21.012-24.222-42.729-46-65.964-3.963-4.227-8.192-8.251-12.436-12.361-32.275-31.259-65.436-60.742-102.715-85.218q-2.537-1.634-5.052-3.268c-20.321-13.216-38.8-27.272-54.256-43.337a406.177,406.177,0,0,1-48.277-60.17c-4.672-7.172-8.606-14.576-12.821-21.581a77.19,77.19,0,0,0-7.636-15.187,45.149,45.149,0,0,1-6.261-15.953,91.6,91.6,0,0,0-3.84-13.881,32.493,32.493,0,0,1-2.067-13.625c.409-4.579.116-9.831.324-15.768.261-7.407,2.951-15.771,7.277-24.789,8.615-17.959,23.648-32.108,43.6-42.856,23.9-12.87,54.567-19.033,91.735-19.033q67.412,0,125.91,41c12.6,8.027,22.549,15.425,31,20.376,6.29,3.684,12.456,4.33,17.387,5.464,6.275,1.443,12.519,2.345,19.511.119" transform="translate(-10.67 -9.947)" fill="none" stroke="#adaeb0" stroke-width="5"/>
        <path id="Path_758" data-name="Path 758" d="M1393.474,768.118a304.68,304.68,0,0,1,40.5,35.745c5.625,5.962,11.834,12.951,19.133,20.483a189.2,189.2,0,0,0,34.081,28.027q52.914,33.6,123.371,33.594c77.165,0,123.614-22.668,138.265-68.383,6.143-19.166,4.522-35.914-4.381-50.1-11.157-20.147-29.249-40.438-53.524-61.716-4.389-3.848-9.051-7.48-13.723-11.254-35.21-28.44-69.8-56.623-106.882-80.82q-2.538-1.629-5.048-3.26c-20.345-13.245-38.475-27.714-53.244-44.454a322.335,322.335,0,0,1-44.078-63.826c-4.056-7.739-7.291-15.6-10.731-23.071a87.993,87.993,0,0,0-6.016-16.207,48.324,48.324,0,0,1-4.488-16.858,110.39,110.39,0,0,0-2.265-14.489,36.505,36.505,0,0,1-.561-14.005c.821-4.736,1.057-10.054,1.828-15.852,1-7.52,4.271-15.714,9.019-24.408,9.675-17.717,25.27-31.579,45.38-42.08,24.523-12.8,55.471-18.946,92.586-18.946q66.186,0,125.251,39.087c12.974,7.8,23.163,14.676,31.551,18.838,6.531,3.24,12.965,1.789,17.819,3.482,5.729,2,12.5-.277,19.641-4.358" transform="translate(-10.67 -8.78)" fill="none" stroke="#adaeb0" stroke-width="5"/>
        <path id="Path_759" data-name="Path 759" d="M1393.474,753.515c11.924,13.073,25.439,27.319,39.381,43.763,5.6,6.6,11.7,13.926,18.765,21.572a185.626,185.626,0,0,0,33.958,29.3q52.9,35.012,124.827,35c77.915,0,123.46-23.234,135.639-70,5.133-19.711,2.1-36.465-8.655-50.156-13.719-19.282-34.27-38.165-61.047-57.468-4.814-3.47-9.9-6.711-15.01-10.146-38.113-25.643-74.161-52.5-111.051-76.422q-2.537-1.623-5.045-3.252c-20.369-13.272-38.135-28.165-52.231-45.57a270.182,270.182,0,0,1-39.88-67.483c-3.419-8.309-5.975-16.623-8.641-24.561a112.326,112.326,0,0,0-4.394-17.227,54.47,54.47,0,0,1-2.716-17.764c.049-4.907-.232-9.947-.69-15.1a42.876,42.876,0,0,1,.943-14.385c1.235-4.892,2.019-10.268,3.332-15.936,1.766-7.621,5.6-15.648,10.762-24.026,10.755-17.459,26.893-31.047,47.155-41.3,25.153-12.734,56.376-18.859,93.438-18.859q64.961,0,124.593,37.176c13.344,7.566,23.788,13.9,32.1,17.3,6.782,2.774,12.938.78,18.253,1.5,5.838.792,12.486-2.9,19.771-8.836" transform="translate(-10.67 -7.613)" fill="none" stroke="#adaeb0" stroke-width="5"/>
        <path id="Path_760" data-name="Path 760" d="M1393.474,738.911c11.48,16.954,24.569,33.948,38.266,51.782,5.561,7.242,11.558,14.9,18.4,22.659a182.866,182.866,0,0,0,33.834,30.571q52.887,36.42,126.284,36.408c78.666,0,123.293-23.8,133.011-71.611,4.117-20.254-.325-37.016-12.929-50.212-16.281-18.417-39.288-35.911-68.568-53.219-5.239-3.1-10.755-5.947-16.3-9.039-40.991-22.874-78.522-48.385-115.219-72.025q-2.538-1.616-5.041-3.244c-20.394-13.3-37.78-28.622-51.219-46.686a236.1,236.1,0,0,1-35.681-71.139c-2.762-8.877-4.659-17.645-6.551-26.051a167.072,167.072,0,0,0-2.774-18.248,64.54,64.54,0,0,1-.942-18.669c.463-5.166.718-10.409.884-15.705a52.554,52.554,0,0,1,2.449-14.765c1.65-5.046,2.994-10.467,4.836-16.02,2.557-7.7,6.938-15.574,12.505-23.644,11.853-17.18,28.52-30.51,48.931-40.528,25.785-12.656,57.281-18.772,94.289-18.772q63.735,0,123.935,35.265c13.715,7.337,24.417,13.095,32.643,15.761,7.037,2.281,13.207,1.125,18.686-.481,5.69-1.668,12.469-5.52,19.9-13.314" transform="translate(-10.67 -6.446)" fill="none" stroke="#adaeb0" stroke-width="5"/>
        <path id="Path_761" data-name="Path 761" d="M1393.474,724.308a567.576,567.576,0,0,0,37.151,59.8c5.52,7.881,11.421,15.875,18.028,23.746a180.827,180.827,0,0,0,33.711,31.843q52.875,37.829,127.741,37.815c79.416,0,123.111-24.362,130.384-73.224,3.095-20.8-2.75-37.567-17.2-50.271-18.842-17.551-44.309-33.674-76.09-48.97-5.664-2.726-11.6-5.186-17.584-7.932-43.853-20.134-82.885-44.266-119.386-67.628q-2.538-1.61-5.036-3.237c-20.418-13.327-37.41-29.082-50.206-47.8-14.095-20.619-25.017-45.576-31.482-74.795-2.089-9.44-3.344-18.669-4.461-27.542-.17-6.374-.608-12.793-1.155-19.267a80.063,80.063,0,0,1,.831-19.574c.874-5.428,1.665-10.873,2.459-16.313a67.026,67.026,0,0,1,3.954-15.144c2.066-5.2,3.978-10.651,6.34-16.1a112.1,112.1,0,0,1,14.248-23.262c12.965-16.882,30.147-29.969,50.706-39.752,26.42-12.572,58.185-18.685,95.141-18.685q62.508,0,123.277,33.355c14.086,7.107,25.041,12.26,33.19,14.222,7.292,1.757,13.543.155,19.118-2.462,5.593-2.625,12.453-8.142,20.029-17.792" transform="translate(-10.67 -5.279)" fill="none" stroke="#adaeb0" stroke-width="5"/>
        <path id="Path_762" data-name="Path 762" d="M1393.474,709.7a461.364,461.364,0,0,0,36.037,67.818,296,296,0,0,0,17.66,24.834,179.359,179.359,0,0,0,33.587,33.115q52.861,39.238,129.2,39.222c80.167,0,122.919-24.919,127.757-74.838,2.068-21.336-5.173-38.118-21.477-50.327-21.4-16.685-49.337-31.451-83.611-44.722-6.091-2.358-12.453-4.43-18.872-6.824-46.709-17.424-87.247-40.147-123.554-63.23q-2.539-1.6-5.032-3.229c-20.443-13.355-37.024-29.542-49.194-48.918-13.611-21.672-23-47.877-27.284-78.452a282.243,282.243,0,0,1-2.37-29.032c.187-6.8.305-13.567.466-20.287a104.021,104.021,0,0,1,2.6-20.479c1.286-5.694,2.612-11.339,4.034-16.921a89.018,89.018,0,0,1,5.459-15.524c2.482-5.351,4.964-10.817,7.844-16.188a131.968,131.968,0,0,1,15.99-22.881c14.089-16.561,31.776-29.423,52.482-38.976,27.056-12.481,59.09-18.6,95.993-18.6q61.282,0,122.618,31.444c14.457,6.878,25.654,11.4,33.736,12.685a27.015,27.015,0,0,0,19.552-4.444c5.554-3.591,12.437-10.763,20.158-22.27" transform="translate(-10.67 -4.112)" fill="none" stroke="#adaeb0" stroke-width="5"/>
        <path id="Path_763" data-name="Path 763" d="M1393.346,695.1c10.146,28.6,21.884,53.815,34.922,75.836a272.176,272.176,0,0,0,17.291,25.922,178.466,178.466,0,0,0,33.464,34.387q52.848,40.645,130.653,40.629,121.377,0,125.13-76.452,1.5-32.811-25.751-50.384-35.948-23.729-91.132-40.473c-6.52-1.992-13.3-3.677-20.159-5.717-49.564-14.741-91.609-36.027-127.722-58.832q-2.539-1.6-5.029-3.221c-20.467-13.383-36.625-30-48.181-50.034-13.111-22.726-20.95-50.142-23.085-82.108a275.135,275.135,0,0,1-.281-30.522c.544-7.234,1.221-14.339,2.087-21.308a141.973,141.973,0,0,1,4.377-21.385c1.7-5.962,3.546-11.812,5.609-17.529A123.049,123.049,0,0,1,1412.5,398c2.908-5.5,5.95-10.967,9.347-16.272a155.805,155.805,0,0,1,17.733-22.5,167.684,167.684,0,0,1,54.257-38.2q41.573-18.511,96.845-18.511,60.056,0,121.96,29.534c14.829,6.648,26.248,10.512,34.282,11.147a27.035,27.035,0,0,0,19.984-6.426c5.559-4.578,12.42-13.385,20.287-26.748" transform="translate(-10.542 -2.945)" fill="none" stroke="#adaeb0" stroke-width="5"/>
        <path id="Path_764" data-name="Path 764" d="M1382.8,678.72q31.216,104.489,84.07,146.522,52.834,42.055,132.11,42.036,122.5,0,122.5-78.066,0-33.61-30.024-50.442-46.84-26.4-120.1-40.834-81.687-21.617-136.914-57.648-66.065-43.235-66.055-136.914t57.648-149.525Q1483.688,298,1579.768,298q58.83,0,121.3,27.623,22.8,9.627,34.83,9.608a27.806,27.806,0,0,0,20.417-8.406q8.387-8.389,20.417-31.227" transform="translate(0 0)" fill="none" stroke="#adaeb0" stroke-width="5"/>
      </g>
    </g>
  </g>
</svg>
