<svg xmlns="http://www.w3.org/2000/svg" width="52.764" height="52.734" viewBox="0 0 52.764 52.734">
  <g id="machines" transform="translate(0)">
    <path id="Path_141" data-name="Path 141" d="M2375.861,256.735c-2.025-2.7-3.937-5.32-5.932-7.874a3.663,3.663,0,0,1-.893-2.7c.08-.984.017-1.979.017-3h22.123c0,1.474.01,2.94-.012,4.406,0,.166-.171.34-.286.492q-3.057,4.087-6.12,8.17c-.1.139-.2.282-.34.477h10.166c0-.783,0-1.557,0-2.332a2.559,2.559,0,0,1,2.721-2.735q8.35,0,16.7,0a2.547,2.547,0,0,1,2.7,2.7q.005,14.334,0,28.668a2.607,2.607,0,0,1-1.4,2.4.714.714,0,0,0-.293.517c-.025,1.329-.022,2.659,0,3.989a1.219,1.219,0,0,0,.21.623,3.4,3.4,0,1,1-5.536-.008.941.941,0,0,0,.2-.467c.016-1.434.009-2.867.009-4.337h-18.72c0,1.472-.005,2.937.009,4.4a.885.885,0,0,0,.205.413,3.394,3.394,0,1,1-5.532-.012.937.937,0,0,0,.2-.467c.015-1.434.009-2.867.009-4.337h-15.316c0,1.473-.006,2.938.009,4.4a.891.891,0,0,0,.205.413,3.395,3.395,0,1,1-5.534-.016,1.2,1.2,0,0,0,.2-.624c.018-1.329.021-2.659,0-3.989a.716.716,0,0,0-.3-.514,2.6,2.6,0,0,1-1.387-2.4q0-11.755,0-23.509a2.556,2.556,0,0,1,2.719-2.737q4.255-.007,8.509,0Zm20.447,27.236h17.45c1.011,0,1.249-.238,1.249-1.252q0-12.686,0-25.372v-.576h-18.7Zm-25.552-39.13c0,.726-.011,1.413.01,2.1a.818.818,0,0,0,.2.416q3.4,4.552,6.825,9.091a.815.815,0,0,0,.563.275c1.169.025,2.338.027,3.507,0a.879.879,0,0,0,.605-.3q3.416-4.509,6.8-9.046a.84.84,0,0,0,.208-.412c.021-.7.01-1.4.01-2.128Zm1.735,32.331v6.762h15.242v-6.762Zm16.98,6.758h5.085V272.09h-6.739v3.388h1.654Zm-23.817-11.853c0,3.727-.006,7.408.007,11.089a.812.812,0,0,0,.884.8c.478.016.956,0,1.434,0h2.795v-8.541h1.653v-3.354Zm17.866-13.631c0,.554.03,1.065-.009,1.572-.034.443.118.624.553.768a9.958,9.958,0,0,1,6.288,5.256,1.27,1.27,0,0,0,1.468.925c.906-.08,1.825-.019,2.72-.019v-8.5Zm-17.871,8.5c1.221,0,2.356-.011,3.489.007.3,0,.361-.152.482-.37a17.526,17.526,0,0,1,1.469-2.445,10.528,10.528,0,0,1,5.161-3.4c.172-.056.43-.214.438-.34.044-.645.021-1.295.021-1.966h-.443q-4.759,0-9.518,0c-.821,0-1.1.289-1.1,1.133q0,2.765,0,5.531Zm49.318-11.934c.146-1.179.021-1.71-1.451-1.7-5.314.039-10.627.015-15.941.015a4.438,4.438,0,0,0-.478.007.818.818,0,0,0-.8.778,8.32,8.32,0,0,0-.006.9Zm-37.38,20.409h5.04v-3.339h-5.04Zm4.192-8.5V261.94h-3.337v4.985Zm1.753-.006h5.323c-.55-1.842-3.5-4.3-5.323-4.454Zm-6.837-4.468c-1.988.295-5.05,2.892-5.283,4.455h5.283Zm-11.021,7.866h6.741v-1.639h-6.741Zm22.126,0h6.74v-1.639h-6.74Zm-19.585,23.866a1.7,1.7,0,1,0-1.714-1.673A1.715,1.715,0,0,0,2368.215,294.183Zm20.455-3.4a1.7,1.7,0,1,0,1.656,1.732A1.712,1.712,0,0,0,2388.67,290.782Zm23.8,0a1.7,1.7,0,1,0,1.684,1.7A1.711,1.711,0,0,0,2412.47,290.782Zm-29.825-22.094h-5.039v1.637h5.039Zm-.855-8.5V258.47h-3.341v1.719Zm-14.4,25.5v3.429h1.633v-3.429Zm22.056,3.429v-3.409h-1.629v3.409Zm23.833,0V285.71h-1.638v3.412Zm-39.081-17.056v3.355h1.626v-3.355Zm11.844,3.369V272.1H2384.4v3.338Zm.011-6.748h-1.637v1.64h1.637Zm-11.86-.011v1.643h1.634v-1.643Z" transform="translate(-2363.946 -243.152)" fill="#696b75"/>
    <path id="Path_142" data-name="Path 142" d="M2619.535,351.2v11.85h-15.252V351.2Zm-13.57,10.14h11.85v-4.219c-1.687,0-3.333.011-4.979-.009a.781.781,0,0,0-.763.418c-.624.979-1.282,1.934-1.967,2.956-.13-.234-.229-.4-.313-.565-.546-1.091-1.083-2.188-1.639-3.273-.077-.151-.244-.351-.381-.36-.594-.04-1.192-.017-1.809-.017Zm4.338-4.218c.333-.5.624-.9.874-1.319a.726.726,0,0,1,.725-.394c1.789.02,3.578.009,5.368.009h.562v-2.525h-11.854v1.674c.918,0,1.8-.017,2.684.015a.715.715,0,0,1,.508.316C2609.555,355.588,2609.894,356.306,2610.3,357.12Z" transform="translate(-2570.198 -335.875)" fill="#696b75"/>
    <path id="Path_143" data-name="Path 143" d="M2630.559,452.072a2.552,2.552,0,1,1,2.54-2.537A2.563,2.563,0,0,1,2630.559,452.072Zm.836-2.543a.847.847,0,1,0-.855.839A.856.856,0,0,0,2631.395,449.529Z" transform="translate(-2590.55 -418.064)" fill="#696b75"/>
    <path id="Path_144" data-name="Path 144" d="M2681.1,449.543a2.551,2.551,0,1,1-2.5-2.575A2.564,2.564,0,0,1,2681.1,449.543Zm-2.543-.87a.847.847,0,1,0,.839.855A.855.855,0,0,0,2678.562,448.672Z" transform="translate(-2631.747 -418.063)" fill="#696b75"/>
  </g>
</svg>
