<svg xmlns="http://www.w3.org/2000/svg" width="51.906" height="51.872" viewBox="0 0 51.906 51.872">
  <path id="accessories" d="M1503.6,613.532v22.709a4.544,4.544,0,0,1-2.74,3.013c-6.981,3.5-13.934,7.049-20.9,10.566-.776.391-1.6.682-2.405,1.02h-1.014a14.475,14.475,0,0,1-1.344-.552q-10.665-5.647-21.323-11.306a3.784,3.784,0,0,1-2.174-3.638q.024-10.438,0-20.876a3.844,3.844,0,0,1,2.231-3.707q10.627-5.61,21.229-11.267a3.918,3.918,0,0,1,3.861-.033q10.913,5.548,21.845,11.059A4.542,4.542,0,0,1,1503.6,613.532Zm-3.041,1.909c-.136.056-.213.081-.284.117-2.778,1.383-5.552,2.772-8.337,4.141-.294.145-.316.334-.316.6q.008,3.065,0,6.131a1.555,1.555,0,0,1-1.519,1.68,1.532,1.532,0,0,1-1.515-1.67c-.007-1.5,0-3.006,0-4.51,0-.157-.017-.313-.03-.516-.227.1-.4.176-.56.257-2.958,1.473-5.912,2.955-8.879,4.41a.793.793,0,0,0-.529.836q.022,9.779.01,19.558v.6c.211-.09.349-.14.479-.206q10.425-5.282,20.852-10.558a1.039,1.039,0,0,0,.639-1.072q-.021-9.627-.009-19.254Zm-25.023,31.574c.012-.185.024-.285.024-.385q0-9.956.011-19.912c0-.367-.186-.488-.455-.628q-9.94-5.174-19.875-10.358c-.145-.075-.294-.142-.5-.241v.563q0,9.6-.011,19.2a1.092,1.092,0,0,0,.675,1.105q9.8,5.175,19.578,10.381C1475.149,646.828,1475.314,646.9,1475.54,647.015Zm-19.072-34.152c.066.078.083.113.11.127q10.136,5.29,20.279,10.567a.711.711,0,0,0,.55-.018c.885-.416,1.755-.862,2.631-1.3l7.012-3.493a3.692,3.692,0,0,0-.318-.217q-10.083-5.338-20.174-10.661a.86.86,0,0,0-.68.012c-.982.487-1.943,1.015-2.911,1.529Zm13.074-6.9c.083.055.136.1.195.129q10.2,5.4,20.4,10.778a.868.868,0,0,0,.683-.017c2.514-1.231,5.018-2.485,7.523-3.734.127-.063.246-.143.393-.229-.1-.066-.158-.107-.218-.137q-10.471-5.305-20.941-10.614a.925.925,0,0,0-.949.01c-2.26,1.211-4.528,2.408-6.792,3.611A3.36,3.36,0,0,0,1469.542,605.967Z" transform="translate(-1451.698 -598.968)" fill="#696b75"/>
</svg>
