<svg xmlns="http://www.w3.org/2000/svg" width="44.796" height="44.719" viewBox="0 0 44.796 44.719">
  <g id="bakery" transform="translate(-16822.832 -1489.22)">
    <path id="Path_9" data-name="Path 9" d="M812.8,618.959v1.135a5.57,5.57,0,0,1-1.973,3.251,1.755,1.755,0,0,0-.66,1.484q.021,8.338,0,16.677a5.034,5.034,0,0,1-.138,1.3,3.9,3.9,0,0,1-3.932,2.966c-2.012.011-4.024,0-6.036,0h-.475v.546c0,2.008,0,4.016,0,6.025a3.743,3.743,0,0,1-1.634,3.3,10.287,10.287,0,0,1-1.864.786h-21.96a.805.805,0,0,0-.159-.063,3.792,3.792,0,0,1-3.277-3.408,31.233,31.233,0,0,1-.062-3.135q-.007-8.612,0-17.224a1.4,1.4,0,0,0-.438-1.18,5.955,5.955,0,0,1-2.19-3.46v-1.135a12.674,12.674,0,0,1,.464-1.251,7.182,7.182,0,0,1,2.883-2.9,18.892,18.892,0,0,1,5.42-2.132c.6-.148,1.213-.275,1.667-.378A15.458,15.458,0,0,1,779,617.8a6.817,6.817,0,0,1,3.086-3.1,21.052,21.052,0,0,1,7.32-2.468,36.971,36.971,0,0,1,9.973-.338,25.823,25.823,0,0,1,8.917,2.287C810.39,615.2,812.188,616.532,812.8,618.959ZM785.1,653.8H795.34c1.144,0,1.619-.474,1.619-1.615q0-7.576,0-15.151c0-1.543-.006-3.086,0-4.628a3.819,3.819,0,0,1,1.33-2.97,7.116,7.116,0,0,0,.768-.774,1.668,1.668,0,0,0,.064-2.373,6.162,6.162,0,0,0-1.313-1.2,15.337,15.337,0,0,0-5.327-2.112,33.389,33.389,0,0,0-9.339-.728,27.463,27.463,0,0,0-8.286,1.609,9.274,9.274,0,0,0-3.528,2.118,1.837,1.837,0,0,0-.07,2.817,4.231,4.231,0,0,0,.495.492,4.092,4.092,0,0,1,1.5,3.379q-.022,9.781-.006,19.562c0,1.082.491,1.572,1.574,1.573Zm14.48-10.654c2.177,0,4.289,0,6.4,0a1.357,1.357,0,0,0,1.559-1.543q0-2.6,0-5.195,0-5.893,0-11.786a3.873,3.873,0,0,1,1.34-3.053,6.955,6.955,0,0,0,.766-.775,1.654,1.654,0,0,0,.047-2.37,6.367,6.367,0,0,0-1.357-1.213,15.624,15.624,0,0,0-5.334-2.092,33.781,33.781,0,0,0-9.73-.706,26.377,26.377,0,0,0-8.092,1.673,8.415,8.415,0,0,0-3.361,2.132,1.962,1.962,0,0,0-.583,1.513c.19,0,.362,0,.533,0,1.922-.025,3.846-.131,5.764-.059a26.878,26.878,0,0,1,9.03,1.838,10.268,10.268,0,0,1,4.707,3.271,4.135,4.135,0,0,1,.589,4.276,5.356,5.356,0,0,1-1.585,2.107,1.827,1.827,0,0,0-.7,1.553c.021,3.3.01,6.606.01,9.909Z" transform="translate(16054.832 877.515)" fill="#696b75"/>
    <path id="Path_10" data-name="Path 10" d="M866.023,816.524a1.272,1.272,0,0,1-1.075-.687,1.233,1.233,0,0,1,.048-1.324,2.142,2.142,0,0,1,.312-.363q5.1-5.1,10.2-10.189a1.371,1.371,0,0,1,1.449-.47,1.29,1.29,0,0,1,.665,2.038,2.87,2.87,0,0,1-.264.29q-5.087,5.079-10.173,10.158A1.56,1.56,0,0,1,866.023,816.524Z" transform="translate(15968.639 706.758)" fill="#696b75"/>
    <path id="Path_11" data-name="Path 11" d="M872.667,780.883a3.024,3.024,0,0,1-.447.777q-2.554,2.6-5.154,5.157a1.307,1.307,0,1,1-1.86-1.834q2.583-2.6,5.19-5.182a1.244,1.244,0,0,1,1.485-.28A1.4,1.4,0,0,1,872.667,780.883Z" transform="translate(15968.64 728.17)" fill="#696b75"/>
    <path id="Path_12" data-name="Path 12" d="M914.269,883.02a1.418,1.418,0,0,1-1.31-.709,1.249,1.249,0,0,1,.03-1.287.655.655,0,0,1,.1-.141c1.811-1.81,3.6-3.642,5.446-5.418a1.274,1.274,0,0,1,2.094.7,1.224,1.224,0,0,1-.343,1.2c-1.745,1.753-3.491,3.506-5.259,5.237A2.712,2.712,0,0,1,914.269,883.02Z" transform="translate(15925.873 642.898)" fill="#696b75"/>
  </g>
</svg>
