<svg id="pharmaceutical" xmlns="http://www.w3.org/2000/svg" width="52.549" height="52.352" viewBox="0 0 52.549 52.352">
  <path id="Path_4" data-name="Path 4" d="M962.151,333.794c-.024-.129-.047-.257-.069-.385-.05-.282-.1-.573-.161-.859h0a11.657,11.657,0,1,0-20.628,9.492,11.525,11.525,0,0,0,8.14,4.468q.517.047,1.036.047a11.734,11.734,0,0,0,6.247-1.814,11.553,11.553,0,0,0,4.694-5.828,15.814,15.814,0,0,0,.529-2.032c.065-.306.133-.622.208-.929l.009-.037v-2.066ZM950.492,343.7h0a8.816,8.816,0,0,1,0-17.632h0a8.816,8.816,0,0,1,0,17.632Z" transform="translate(-909.608 -294.204)" fill="#696b75"/>
  <path id="Path_5" data-name="Path 5" d="M749.14,103.435h0a11.5,11.5,0,0,0-10.533-9.349,11.053,11.053,0,0,0-10.391,5.436c-6.513,10.342-12.876,20.534-18.241,29.139a11.108,11.108,0,0,0,.774,13.256,11.249,11.249,0,0,0,8.708,4.246h.024c.223-.013.424-.02.609-.027a9.043,9.043,0,0,0,.982-.071,11.268,11.268,0,0,0,8.212-5.366c5.372-8.566,11.168-17.825,18.24-29.139A11.338,11.338,0,0,0,749.14,103.435Zm-13.91,22.41-1.236,1.976c-1.265,2.022-2.572,4.113-3.859,6.157h0c-.35.557-.7,1.127-1.038,1.678-.866,1.412-1.762,2.872-2.74,4.23a7.907,7.907,0,0,1-7.314,3.379,8.586,8.586,0,0,1-8.013-8.9,8.431,8.431,0,0,1,1.314-4.137q2.916-4.666,5.837-9.328l2.567-4.1.009-.013Zm3.737-5.969q-1.112,1.772-2.223,3.545l-.006.01-14.469-9.054c.015-.028.03-.055.046-.08q4.133-6.608,8.268-13.213a8.455,8.455,0,0,1,5.984-4.069,8.745,8.745,0,0,1,9.521,5.9,8.34,8.34,0,0,1-.917,7.031h0C743.115,113.265,741.007,116.626,738.968,119.876Z" transform="translate(-708.149 -94.075)" fill="#696b75"/>
  <path id="Path_6" data-name="Path 6" d="M1004.038,367.3a1.581,1.581,0,0,0-1.25.9l-2.391,3.881q-1.523,2.472-3.046,4.945a2.685,2.685,0,0,0-.274.563,1.4,1.4,0,0,0,1.336,1.84h.017a1.533,1.533,0,0,0,1.3-.845q1.432-2.33,2.868-4.659,1.31-2.127,2.619-4.255a2.548,2.548,0,0,0,.274-.57,1.373,1.373,0,0,0-.233-1.279A1.421,1.421,0,0,0,1004.038,367.3Z" transform="translate(-960.397 -332.667)" fill="#696b75"/>
  <path id="Path_7" data-name="Path 7" d="M750.114,389.812a3.817,3.817,0,0,1-1.564-1.873,3.737,3.737,0,0,1,.213-3.166,1.833,1.833,0,0,0,.2-1.4,1.314,1.314,0,0,0-.691-.768c-.783-.391-1.53-.072-2.05.877a6.57,6.57,0,0,0-.787,3.176v.028c0,.045.006.1.009.16.008.172.019.385.051.6a6.485,6.485,0,0,0,3.16,4.8,1.561,1.561,0,0,0,.812.237,1.372,1.372,0,0,0,1.358-1.156A1.421,1.421,0,0,0,750.114,389.812Z" transform="translate(-740.714 -345.895)" fill="#696b75"/>
  <path id="Path_8" data-name="Path 8" d="M958.559,142.7a9.557,9.557,0,0,0-.245-1.262,6.38,6.38,0,0,0-2.83-3.717h0a1.586,1.586,0,0,0-1.467-.172,1.379,1.379,0,0,0-.8,1,1.434,1.434,0,0,0,.737,1.559,3.847,3.847,0,0,1,1.565,1.925,3.982,3.982,0,0,1-.329,3.3,1.52,1.52,0,0,0-.124,1.17,1.442,1.442,0,0,0,1.338.967,1.512,1.512,0,0,0,1.285-.819,7.021,7.021,0,0,0,.966-3.337v-.035l-.006-.034C958.614,143.072,958.586,142.888,958.559,142.7Z" transform="translate(-922.125 -131.947)" fill="#696b75"/>
</svg>
