<svg id="processing-lines" xmlns="http://www.w3.org/2000/svg" width="50.826" height="50.825" viewBox="0 0 50.826 50.825">
  <path id="Path_137" data-name="Path 137" d="M2013.8,1015.9c-.929-.13-1.871-.2-2.787-.4q-14.826-3.157-19.206-17.68a1.489,1.489,0,1,1,2.854-.81,21.348,21.348,0,0,0,40.117,3.29l.206-.47c-.413.165-.738.292-1.06.423a1.529,1.529,0,0,1-2.126-.741,1.508,1.508,0,0,1,.954-1.994q2.05-.877,4.107-1.738a1.529,1.529,0,0,1,2.238.932c.569,1.337,1.129,2.678,1.7,4.016.056.131.136.252.205.378v.794a1.6,1.6,0,0,1-1.586,1.1c-.822-.055-1.192-.61-1.448-1.3-.069-.184-.167-.357-.277-.59-.108.232-.176.382-.247.53a24.063,24.063,0,0,1-17.922,13.872c-.9.177-1.827.259-2.741.385Z" transform="translate(-1990.176 -965.071)" fill="#696b75"/>
  <path id="Path_138" data-name="Path 138" d="M2007.2,765c.93.13,1.872.2,2.787.4q14.829,3.149,19.2,17.675a1.5,1.5,0,0,1-.959,1.957,1.482,1.482,0,0,1-1.891-1.137,21.354,21.354,0,0,0-39.868-3.854c-.09.188-.165.384-.288.673.406-.167.715-.3,1.03-.422a1.494,1.494,0,0,1,1.963.75,1.468,1.468,0,0,1-.795,1.979q-2.2.96-4.428,1.865a1.452,1.452,0,0,1-1.985-.864c-.6-1.378-1.174-2.766-1.763-4.149a4.218,4.218,0,0,0-.207-.376V778.7a.522.522,0,0,0,.087-.112,1.414,1.414,0,0,1,1.4-.989,1.463,1.463,0,0,1,1.43,1.027c.128.314.271.622.442,1.013.125-.247.212-.418.3-.589a24.075,24.075,0,0,1,17.192-13.544c1.108-.246,2.25-.34,3.376-.5Z" transform="translate(-1980 -765)" fill="#696b75"/>
  <path id="Path_139" data-name="Path 139" d="M2077.281,858.1a4.194,4.194,0,0,1-2.426,3.612,4.318,4.318,0,0,1-4.645-.344.933.933,0,0,0-1.434.565,4.461,4.461,0,0,1-8.815.016.92.92,0,0,0-1.423-.589,4.465,4.465,0,0,1-6.26-6.2.924.924,0,0,0-.624-1.468,4.461,4.461,0,0,1-.4-8.7c.1-.026.193-.046.29-.064a1.11,1.11,0,0,0,.98-1.013.593.593,0,0,0-.147-.339,4.467,4.467,0,0,1,6.27-6.261.97.97,0,0,0,1.3-.6,4.361,4.361,0,0,1,3.452-3.719,4.431,4.431,0,0,1,5.345,3.5,1.148,1.148,0,0,0,1.031.962c.138,0,.287-.132.416-.224a4.466,4.466,0,0,1,6.266,6.2.919.919,0,0,0,.573,1.459,4.461,4.461,0,0,1,.165,8.779,1.106,1.106,0,0,0-.98,1.013.686.686,0,0,0,.174.379A4.748,4.748,0,0,1,2077.281,858.1Zm-22.861-.557a1.549,1.549,0,0,0,.83,1.531,1.418,1.418,0,0,0,1.584-.169c.259-.2.476-.458.718-.683a1.523,1.523,0,0,1,1.743-.279q1.268.552,2.554,1.065a1.5,1.5,0,0,1,1.027,1.43c.01.3-.01.6.009.893a1.485,1.485,0,0,0,2.967,0c.018-.3,0-.6.008-.893a1.5,1.5,0,0,1,1.031-1.427c.857-.341,1.706-.7,2.555-1.062a1.49,1.49,0,0,1,1.7.248c.2.176.374.375.567.555a1.491,1.491,0,1,0,2.113-2.1c-.192-.205-.406-.39-.589-.6a1.458,1.458,0,0,1-.242-1.618c.366-.882.736-1.763,1.1-2.648a1.475,1.475,0,0,1,1.357-.989c.263-.018.529,0,.794-.006a1.49,1.49,0,1,0,.021-2.976c-.248-.005-.5,0-.744,0a1.515,1.515,0,0,1-1.453-1.067c-.331-.843-.683-1.678-1.046-2.508a1.519,1.519,0,0,1,.27-1.743c.225-.243.479-.46.685-.717a1.478,1.478,0,0,0-2.093-2.069c-.23.187-.43.411-.646.616a1.538,1.538,0,0,1-1.864.295q-1.194-.536-2.418-1a1.522,1.522,0,0,1-1.1-1.531c0-.265.01-.53-.005-.794a1.486,1.486,0,0,0-2.969,0c-.014.281,0,.562-.006.843a1.51,1.51,0,0,1-1.055,1.461q-1.263.5-2.508,1.047a1.532,1.532,0,0,1-1.782-.291c-.229-.215-.437-.455-.681-.651a1.481,1.481,0,0,0-2.059,2.116c.18.214.394.4.587.6a1.516,1.516,0,0,1,.284,1.9c-.253.519-.517,1.036-.719,1.575-.677,1.806-.667,1.81-2.577,1.913a1.487,1.487,0,0,0-.02,2.971c.28.016.562,0,.843.007a1.517,1.517,0,0,1,1.487,1.09c.322.829.668,1.649,1.027,2.462a1.535,1.535,0,0,1-.277,1.785,4.946,4.946,0,0,0-.549.571A8.452,8.452,0,0,0,2054.42,857.542Z" transform="translate(-2038.955 -823.88)" fill="#696b75"/>
  <path id="Path_140" data-name="Path 140" d="M2142.753,923.261a4.466,4.466,0,1,1-4.491,4.415A4.475,4.475,0,0,1,2142.753,923.261Zm1.461,4.471a1.487,1.487,0,1,0-1.48,1.482A1.5,1.5,0,0,0,2144.214,927.731Z" transform="translate(-2117.314 -902.314)" fill="#696b75"/>
</svg>
