<svg xmlns="http://www.w3.org/2000/svg" xmlns:xlink="http://www.w3.org/1999/xlink" width="884" height="894" viewBox="0 0 884 894">
  <defs>
    <clipPath id="clip-path">
      <rect id="Rectangle_227" data-name="Rectangle 227" width="884" height="894" transform="translate(12093 436)" fill="#fff" stroke="#707070" stroke-width="1"/>
    </clipPath>
  </defs>
  <g id="S-Black" transform="translate(-12093 -436)" opacity="0.05" clip-path="url(#clip-path)">
    <g id="Group_214" data-name="Group 214" transform="matrix(0.839, 0.545, -0.545, 0.839, 12519.819, 435.785)" opacity="0.7">
      <g id="Group_213" data-name="Group 213">
        <path id="Path_473" data-name="Path 473" d="M514.921,204.709Q434.613.024,266.121,0,192.086,0,155.893,25.982q-36.242,25.983-36.218,65.349,0,23.622,11.023,37.006,11,13.4,17.321,19.684,6.274,6.31,20.472,13.385,14.171,7.086,23.62,11.023t29.131,10.235q19.672,6.311,29.132,7.874,107.065,26.8,154.319,46.453a527.63,527.63,0,0,1,89.757,48.028q86.583,59.863,86.608,192.9,0,133.086-78.735,201.56-78.758,68.5-215.731,68.5-97.655,0-188.963-45.667-18.9-12.583-29.919-12.6-34.655,0-67.711,58.263" transform="translate(18.897 36.218)" fill="none" stroke="#161928" stroke-width="5"/>
        <path id="Path_474" data-name="Path 474" d="M0,732.425c21.462-33.737,43.564-49.953,66.249-47.749,7.323.711,17.141,5.484,29.436,14.022a403.881,403.881,0,0,0,46.141,21.736,390.389,390.389,0,0,0,144.569,27.443q138.474,0,212.288-70.615a191.966,191.966,0,0,0,44.689-65.011q23.4-54.943,18.58-131.053c-.57-9.577-1.534-18.847-2.806-27.822-9.943-70.2-40.042-122.847-90.955-157.859q-3.322-2.206-6.667-4.366a701.95,701.95,0,0,0-81.758-45.115c-24.558-11.573-60.387-24.88-107.338-40.538-12.2-4.069-25.085-8.38-38.736-12.664q-8.747-2.395-27.007-9.211A247.251,247.251,0,0,1,179.879,172.2c-5.709-3-12.918-6.912-21.555-11.821q-12.973-7.331-18.5-13.883c-3.673-4.384-8.885-10.926-15.349-19.794-6.508-8.927-9.428-21.178-8.738-36.505,1.165-25.9,14.173-47.347,38.546-64.332Q191.71,0,265.629,0q101.245,0,171.99,73.794a334.8,334.8,0,0,1,34.918,42.85c6.32,9.075,12.592,18.271,18.257,27.947,8.652,14.783,16.585,30.574,24.225,47.127" transform="translate(18.897 34.151)" fill="none" stroke="#161928" stroke-width="5"/>
        <path id="Path_475" data-name="Path 475" d="M0,716.875c20.88-28.65,42.563-41.591,64.788-37.237,7.33,1.437,16.96,6.762,28.953,15.449a366.143,366.143,0,0,0,45.979,23.4A373.476,373.476,0,0,0,286.2,747.778c93.3,0,163.072-24.079,208.842-72.73,18.392-19.551,31.349-41.31,39.085-65.087,12.242-35.494,14.957-77.295,8.718-125.483-1.175-9.075-2.7-17.857-4.493-26.37-14.073-66.657-45.761-117.447-96.42-152.093q-3.323-2.2-6.661-4.355c-26.42-17.075-53.39-32.283-80.429-46.578-24.1-12.743-58.169-27.464-101.833-45.332-11.432-4.678-23.359-9.722-35.995-14.617q-8.046-3.241-24.883-10.549c-11.222-4.918-19.319-9.2-24.482-12.609-5.118-3.377-11.649-7.544-19.49-12.618s-13.385-9.826-16.525-14.38c-3.154-4.575-7.8-11.1-13.378-19.9-5.679-8.952-7.821-21.105-6.453-36,2.348-25.579,16.229-46.758,40.874-63.314C178.375,8.489,215.919,0,265.137,0q99.637,0,171.127,71.288c13.115,12.632,24.694,26.465,35.636,40.833,6.507,8.546,13.141,16.738,18.823,25.35,8.712,13.2,16.563,27.137,24.4,41.256" transform="translate(18.897 32.084)" fill="none" stroke="#161928" stroke-width="5"/>
        <path id="Path_476" data-name="Path 476" d="M0,701.325c20.3-23.562,41.59-33.168,63.326-26.724,7.349,2.179,16.78,8.039,28.469,16.874a337.015,337.015,0,0,0,45.818,25.072Q207.112,747.68,286,747.68c94.284,0,162.989-24.731,205.4-74.847,17.116-20.227,28.172-42.033,33.482-65.161,8.882-34.359,8.226-74.271-1.145-119.912-1.761-8.574-3.857-16.864-6.181-24.918-18.2-63.08-51.48-112.046-101.884-146.327q-3.324-2.191-6.656-4.346c-26.453-17.112-53.061-32.7-79.1-48.042-23.651-13.936-55.983-30.1-96.328-50.126-10.672-5.3-21.634-11.063-33.254-16.571-4.9-2.724-12.508-6.655-22.759-11.886-10.284-5.249-17.557-9.986-22.157-13.8-4.523-3.746-10.387-8.164-17.426-13.415s-11.94-10.15-14.55-14.878c-2.635-4.771-6.706-11.3-11.406-20.014-4.854-9-6.2-21.04-4.168-35.5,3.549-25.277,18.325-46.114,43.2-62.3C177.556,8.409,215.5,0,264.645,0q98.03,0,170.264,68.783c13.6,12.331,25.3,25.605,36.352,38.816,6.708,8.022,13.681,15.19,19.391,22.751,8.763,11.607,16.542,23.7,24.565,35.385" transform="translate(18.897 30.018)" fill="none" stroke="#161928" stroke-width="5"/>
        <path id="Path_477" data-name="Path 477" d="M0,685.775c19.714-18.474,40.628-24.68,61.865-16.211,7.372,2.94,16.6,9.316,27.987,18.3a314.366,314.366,0,0,0,45.656,26.74q69.481,32.979,150.3,32.977c95.268,0,162.9-25.4,201.953-76.963,15.839-20.91,24.994-42.754,27.878-65.237,5.524-33.224,1.509-71.236-11.006-114.341-2.343-8.069-5.016-15.865-7.867-23.466-22.314-59.464-57.2-106.645-107.35-140.561q-3.323-2.183-6.651-4.335c-26.484-17.148-52.727-33.142-77.775-49.505-23.2-15.155-53.821-32.79-90.823-54.921-9.921-5.934-19.909-12.4-30.514-18.525-4.429-3.287-11.344-7.65-20.634-13.224-9.337-5.6-15.792-10.759-19.833-14.983-3.927-4.1-9.123-8.783-15.361-14.212-6.217-5.412-10.495-10.478-12.577-15.376-2.113-4.97-5.61-11.519-9.434-20.124-4.028-9.065-4.562-20.98-1.883-35,4.772-24.985,20.426-45.462,45.53-61.278C176.741,8.337,215.074,0,264.153,0q96.422,0,169.4,66.278c14.09,12.03,25.94,24.743,37.069,36.8,6.923,7.5,14.209,13.625,19.958,20.154,8.8,9.989,16.521,20.262,24.735,29.514" transform="translate(18.897 27.95)" fill="none" stroke="#161928" stroke-width="5"/>
        <path id="Path_478" data-name="Path 478" d="M0,670.225c19.131-13.385,39.66-16.134,60.4-5.7,7.395,3.721,16.418,10.594,27.5,19.727A296.466,296.466,0,0,0,133.4,712.661q69.465,34.827,152.208,34.822c96.253,0,162.8-26.09,198.509-79.078,14.556-21.6,21.816-43.477,22.273-65.312C508.556,571,501.2,534.9,485.522,494.322c-2.922-7.563-6.172-14.862-9.555-22.014-26.4-55.81-62.919-101.244-112.814-134.8q-3.324-2.174-6.645-4.325C329.991,316,304.123,299.571,280.06,282.218c-22.739-16.4-51.669-35.557-85.318-59.714-9.175-6.587-18.183-13.745-27.773-20.479-3.961-3.851-10.181-8.647-18.509-14.561-8.393-5.96-14.029-11.521-17.508-16.17a165.093,165.093,0,0,0-13.3-15.01c-5.407-5.579-9.047-10.809-10.6-15.874-1.59-5.173-4.5-11.76-7.462-20.234-3.2-9.157-2.91-20.922.4-34.5,6.021-24.7,22.533-44.8,47.858-60.261C175.933,8.271,214.651,0,263.661,0Q358.476,0,432.2,63.773c14.576,11.729,26.6,23.872,37.785,34.783,7.153,6.98,14.714,12.041,20.526,17.556,8.8,8.35,16.5,16.824,24.9,23.642" transform="translate(18.897 25.884)" fill="none" stroke="#161928" stroke-width="5"/>
        <path id="Path_479" data-name="Path 479" d="M0,654.675c18.548-8.3,38.676-7.538,58.941,4.815,7.412,4.518,16.238,11.872,27.02,21.153a282.092,282.092,0,0,0,45.331,30.075q69.447,36.673,154.118,36.667c97.237,0,162.689-26.793,195.064-81.195,13.27-22.3,18.639-44.2,16.671-65.387-1.194-30.954-11.869-65.14-30.73-103.2-3.5-7.056-7.324-13.855-11.243-20.563-30.457-52.126-68.639-95.843-118.279-129.03q-3.325-2.166-6.64-4.315c-26.548-17.22-52.03-34.117-75.12-52.432-22.269-17.663-49.51-38.4-79.812-64.508-8.429-7.26-16.459-15.087-25.033-22.433-3.494-4.413-9.019-9.649-16.385-15.9-7.449-6.321-12.271-12.274-15.183-17.357a129.922,129.922,0,0,0-11.231-15.807c-4.6-5.745-7.6-11.145-8.63-16.372-1.065-5.38-3.38-12.022-5.491-20.344-2.351-9.272-1.239-20.866,2.687-34,7.3-24.42,24.644-44.137,50.186-59.244C175.129,8.212,214.228,0,263.168,0q93.209,0,167.675,61.269c15.062,11.426,27.3,22.99,38.5,32.765,7.4,6.457,15.189,10.442,21.094,14.958,8.76,6.7,16.478,13.387,25.074,17.771" transform="translate(18.897 23.817)" fill="none" stroke="#161928" stroke-width="5"/>
        <path id="Path_480" data-name="Path 480" d="M0,639.125c17.966-3.21,37.667,1.1,57.48,15.328,7.419,5.329,16.058,13.149,26.536,22.578a270.591,270.591,0,0,0,45.17,31.744q69.43,38.52,156.028,38.512c98.22,0,162.563-27.512,191.619-83.312,11.976-23,15.46-44.921,11.066-65.461-4.552-29.82-18.522-62.091-40.592-97.63-4.068-6.55-8.469-12.844-12.93-19.111-34.464-48.418-74.357-90.442-123.744-123.263q-3.324-2.16-6.635-4.3c-26.579-17.256-51.66-34.643-73.792-53.9-21.788-18.953-47.323-41.334-74.308-69.3-7.676-7.956-14.734-16.428-22.292-24.387-3.027-4.978-7.857-10.656-14.261-17.237a61.143,61.143,0,0,1-12.858-18.544,114.366,114.366,0,0,0-9.165-16.6c-3.788-5.906-6.141-11.481-6.657-16.87-.535-5.587-2.231-12.3-3.518-20.454-1.485-9.407.447-20.808,4.971-33.5,8.6-24.137,26.762-43.464,52.514-58.226C174.33,8.16,213.805,0,262.676,0q91.6,0,166.812,58.763c15.549,11.126,28.026,22.093,39.217,30.749,7.664,5.928,15.62,8.833,21.662,12.36,8.656,5.052,16.456,9.949,25.243,11.9" transform="translate(18.897 21.75)" fill="none" stroke="#161928" stroke-width="5"/>
        <path id="Path_481" data-name="Path 481" d="M0,623.575c17.383,1.877,36.63,9.758,56.018,25.841,7.416,6.152,15.877,14.427,26.053,24.005a261.35,261.35,0,0,0,45.008,33.411q69.412,40.366,157.937,40.357c99.205,0,162.419-28.241,188.175-85.427,10.678-23.707,12.283-45.644,5.462-65.536-7.91-28.685-25.151-59.05-50.454-92.059-4.633-6.045-9.609-11.83-14.618-17.659-38.418-44.7-80.078-85.042-129.208-117.5q-3.326-2.151-6.63-4.294c-26.611-17.293-51.274-35.192-72.465-55.359-21.29-20.262-45.086-44.338-68.8-74.1-6.911-8.671-13.009-17.77-19.552-26.341-2.559-5.54-6.693-11.668-12.135-18.574a58.5,58.5,0,0,1-10.534-19.73,111.328,111.328,0,0,0-7.1-17.4c-2.98-6.065-4.682-11.817-4.683-17.367,0-5.8-1.056-12.594-1.547-20.565-.589-9.556,2.151-20.746,7.256-33,9.933-23.848,28.882-42.784,54.842-57.209C173.536,8.116,213.383,0,262.184,0q89.994,0,165.948,56.258c16.036,10.825,28.782,21.172,39.934,28.732,7.947,5.387,16,7.235,22.229,9.762,8.476,3.438,16.436,6.511,25.413,6.028" transform="translate(18.897 19.684)" fill="none" stroke="#161928" stroke-width="5"/>
        <path id="Path_482" data-name="Path 482" d="M0,608.025c16.8,6.965,35.565,18.438,54.557,36.354,7.4,6.982,15.7,15.7,25.57,25.431a254.01,254.01,0,0,0,44.846,35.079q69.4,42.213,159.847,42.2c100.189,0,162.257-28.979,184.73-87.543,9.37-24.418,9.105-46.366-.141-65.611-11.27-27.55-31.759-56.024-60.317-86.489-5.2-5.543-10.741-10.818-16.305-16.207-42.318-40.985-85.8-79.641-134.673-111.732q-3.326-2.143-6.625-4.284c-26.643-17.329-50.87-35.757-71.137-56.821a532.552,532.552,0,0,1-63.3-78.891c-6.126-9.4-11.283-19.112-16.81-28.3-2.092-6.1-5.527-12.685-10.012-19.912a59.205,59.205,0,0,1-8.209-20.917,120.031,120.031,0,0,0-5.036-18.2c-2.177-6.22-3.22-12.153-2.71-17.865.536-6,.152-12.89.425-20.674.342-9.711,3.869-20.678,9.541-32.5,11.3-23.547,31.006-42.1,57.171-56.191C172.746,8.08,212.96,0,261.692,0q88.386,0,165.085,53.753c16.522,10.524,29.565,20.224,40.651,26.716,8.247,4.83,16.331,5.677,22.8,7.164,8.228,1.892,16.414,3.074,25.582.157" transform="translate(18.897 17.616)" fill="none" stroke="#161928" stroke-width="5"/>
        <path id="Path_483" data-name="Path 483" d="M0,592.475a399.49,399.49,0,0,1,53.1,46.867c7.375,7.817,15.516,16.981,25.087,26.856a248.055,248.055,0,0,0,44.685,36.747Q192.244,747,284.624,746.992c101.173,0,162.075-29.721,181.285-89.66,8.054-25.13,5.928-47.089-5.745-65.686-14.628-26.416-38.35-53.02-70.178-80.918-5.755-5.045-11.867-9.807-17.993-14.756-46.166-37.289-91.515-74.241-140.138-105.966q-3.327-2.136-6.619-4.275c-26.676-17.365-50.446-36.337-69.81-58.285a422.646,422.646,0,0,1-57.792-83.685c-5.317-10.147-9.559-20.453-14.07-30.249a115.377,115.377,0,0,0-7.887-21.25,63.361,63.361,0,0,1-5.885-22.1,144.82,144.82,0,0,0-2.97-19,47.857,47.857,0,0,1-.736-18.363c1.076-6.209,1.386-13.183,2.4-20.784,1.31-9.859,5.6-20.6,11.826-32,12.685-23.229,33.132-41.405,59.5-55.173C171.959,8.052,212.537,0,261.2,0Q347.98,0,425.422,51.248c17.01,10.223,30.37,19.243,41.367,24.7,8.564,4.248,17,2.346,23.364,4.565,7.511,2.62,16.393-.363,25.752-5.714" transform="translate(18.897 15.55)" fill="none" stroke="#161928" stroke-width="5"/>
        <path id="Path_484" data-name="Path 484" d="M0,576.924c15.634,17.141,33.354,35.819,51.633,57.38,7.338,8.656,15.335,18.259,24.6,28.283A243.369,243.369,0,0,0,120.761,701q69.361,45.906,163.666,45.891c102.158,0,161.874-30.464,177.841-91.775,6.73-25.844,2.75-47.811-11.348-65.761-17.988-25.281-44.932-50.039-80.04-75.348-6.312-4.55-12.986-8.8-19.681-13.3-49.971-33.621-97.235-68.84-145.6-100.2q-3.327-2.128-6.614-4.264c-26.707-17.4-50-36.928-68.482-59.748a354.247,354.247,0,0,1-52.287-88.479c-4.483-10.895-7.834-21.794-11.33-32.2a147.293,147.293,0,0,0-5.762-22.587,71.419,71.419,0,0,1-3.56-23.291c.064-6.434-.3-13.042-.9-19.794a56.22,56.22,0,0,1,1.237-18.861c1.619-6.414,2.647-13.463,4.369-20.895,2.315-9.993,7.343-20.517,14.111-31.5,14.1-22.891,35.261-40.707,61.826-54.155C171.177,8.031,212.115,0,260.708,0Q345.88,0,424.067,48.743c17.5,9.921,31.189,18.225,42.084,22.681,8.891,3.637,16.964,1.022,23.932,1.968,7.654,1.039,16.371-3.8,25.921-11.585" transform="translate(18.897 13.483)" fill="none" stroke="#161928" stroke-width="5"/>
        <path id="Path_485" data-name="Path 485" d="M0,561.375c15.052,22.229,32.214,44.511,50.172,67.893,7.292,9.495,15.154,19.536,24.121,29.709a239.768,239.768,0,0,0,44.361,40.083Q188,746.811,284.23,746.795c103.142,0,161.654-31.206,174.4-93.891,5.4-26.556-.427-48.534-16.952-65.836-21.347-24.147-51.512-47.085-89.9-69.778-6.869-4.06-14.1-7.8-21.368-11.851C276.659,475.448,227.45,442,179.336,411q-3.327-2.119-6.609-4.254c-26.739-17.438-49.535-37.527-67.155-61.212-19.089-25.659-35.4-56.695-46.783-93.273-3.621-11.64-6.109-23.136-8.589-34.157a219.163,219.163,0,0,0-3.637-23.925,84.6,84.6,0,0,1-1.235-24.477c.606-6.773.941-13.647,1.159-20.591A68.9,68.9,0,0,1,49.7,129.756c2.164-6.616,3.926-13.724,6.341-21,3.352-10.1,9.1-20.42,16.4-31,15.541-22.526,37.393-40,64.155-53.137C170.4,8.02,211.692,0,260.216,0q83.565,0,162.5,46.238c17.983,9.62,32.014,17.169,42.8,20.665,9.227,2.99,17.317,1.475,24.5-.631,7.461-2.187,16.349-7.238,26.09-17.457" transform="translate(18.897 11.416)" fill="none" stroke="#161928" stroke-width="5"/>
        <path id="Path_486" data-name="Path 486" d="M0,545.825c14.469,27.316,31.055,53.2,48.71,78.406,7.238,10.333,14.974,20.814,23.637,31.135a237.084,237.084,0,0,0,44.2,41.75q69.326,49.6,167.486,49.581c104.126,0,161.416-31.943,170.952-96.007,4.057-27.267-3.606-49.256-22.557-65.912-24.7-23.011-58.1-44.151-99.764-64.207-7.427-3.574-15.215-6.8-23.056-10.4-57.5-26.4-108.673-58.039-156.532-88.669q-3.328-2.111-6.6-4.244c-26.771-17.474-49.049-38.13-65.827-62.675-18.48-27.034-32.8-59.756-41.278-98.067-2.738-12.376-4.384-24.477-5.849-36.111-.222-8.357-.8-16.773-1.513-25.262A104.969,104.969,0,0,1,33.1,169.479c1.147-7.116,2.183-14.255,3.225-21.388a87.865,87.865,0,0,1,5.185-19.856c2.708-6.817,5.215-13.965,8.312-21.116,4.41-10.18,10.855-20.31,18.681-30.5,17-22.135,39.527-39.294,66.483-52.12C169.621,8.015,211.269,0,259.724,0q81.957,0,161.633,43.733c18.469,9.319,32.832,16.074,43.516,18.648,9.561,2.3,17.757.2,25.067-3.228,7.333-3.442,16.328-10.675,26.26-23.328" transform="translate(18.897 9.349)" fill="none" stroke="#161928" stroke-width="5"/>
        <path id="Path_487" data-name="Path 487" d="M0,530.275a604.939,604.939,0,0,0,47.249,88.918A388.022,388.022,0,0,0,70.4,651.755q20.566,26.005,44.037,43.418,69.308,51.447,169.4,51.426c105.111,0,161.164-32.672,167.507-98.123,2.712-27.974-6.782-49.978-28.159-65.986-28.064-21.877-64.688-41.237-109.626-58.636-7.987-3.092-16.327-5.809-24.744-8.948-61.241-22.845-114.392-52.638-162-82.9q-3.328-2.1-6.6-4.234c-26.8-17.51-48.544-38.734-64.5-64.138-17.846-28.415-30.151-62.774-35.773-102.861A370.05,370.05,0,0,1,16.839,222.7c.245-8.92.4-17.789.611-26.6a136.35,136.35,0,0,1,3.414-26.851c1.686-7.465,3.424-14.867,5.29-22.186a116.692,116.692,0,0,1,7.158-20.354c3.255-7.015,6.509-14.182,10.284-21.225a173.013,173.013,0,0,1,20.965-30c18.473-21.713,41.663-38.578,68.811-51.1C168.847,8.02,210.847,0,259.232,0Q339.582,0,420,41.228c18.956,9.018,33.636,14.944,44.232,16.632,9.887,1.575,18.267-1.063,25.635-5.827,7.282-4.708,16.306-14.112,26.43-29.2" transform="translate(18.897 7.282)" fill="none" stroke="#161928" stroke-width="5"/>
        <path id="Path_488" data-name="Path 488" d="M.226,514.725c13.3,37.493,28.693,70.559,45.787,99.432a356.784,356.784,0,0,0,22.671,33.987q20.4,27.042,43.876,45.086,69.291,53.292,171.3,53.27,159.142,0,164.063-100.239,1.962-43.021-33.764-66.061-47.133-31.112-119.488-53.066c-8.549-2.612-17.439-4.822-26.432-7.5C203.261,500.31,148.134,472.4,100.784,442.5q-3.329-2.1-6.593-4.223c-26.835-17.547-48.021-39.338-63.172-65.6C13.829,342.878,3.551,306.932.752,265.02A360.726,360.726,0,0,1,.384,225c.713-9.484,1.6-18.8,2.736-27.938a186.136,186.136,0,0,1,5.739-28.039c2.225-7.817,4.65-15.487,7.354-22.983a161.35,161.35,0,0,1,9.132-20.852c3.812-7.206,7.8-14.379,12.255-21.335a204.3,204.3,0,0,1,23.251-29.5c19.956-21.26,43.818-37.814,71.139-50.085Q186.5,0,258.966,0q78.742,0,159.906,38.723c19.443,8.716,34.414,13.783,44.949,14.615a35.447,35.447,0,0,0,26.2-8.425c7.289-6,16.285-17.55,26.6-35.071" transform="translate(18.671 5.216)" fill="none" stroke="#161928" stroke-width="5"/>
        <path id="Path_489" data-name="Path 489" d="M18.9,502.324q40.929,137,110.228,192.111,69.273,55.14,173.215,55.115,160.618,0,160.617-102.355,0-44.067-39.366-66.136-61.413-34.62-157.469-53.54-107.1-28.343-179.514-75.585Q-.012,395.247,0,272.42T75.584,76.372Q151.17,3.148,277.145,3.149q77.135,0,159.043,36.217,29.894,12.623,45.666,12.6a36.458,36.458,0,0,0,26.77-11.022q11-11,26.769-40.942" fill="none" stroke="#161928" stroke-width="5"/>
      </g>
      <line id="Line_31" data-name="Line 31" x1="2.26" y2="240.328" transform="translate(533.475 0.301)" fill="none" stroke="#161928" stroke-width="5"/>
      <line id="Line_32" data-name="Line 32" y2="282.517" transform="translate(18.917 502.052)" fill="none" stroke="#161928" stroke-width="5"/>
    </g>
  </g>
</svg>
