<svg xmlns="http://www.w3.org/2000/svg" xmlns:xlink="http://www.w3.org/1999/xlink" width="851" height="461" viewBox="0 0 851 461">
  <defs>
    <clipPath id="clip-path">
      <rect id="Rectangle_205" data-name="Rectangle 205" width="851" height="461" transform="translate(12199 775)" fill="#fff" stroke="#707070" stroke-width="1"/>
    </clipPath>
  </defs>
  <g id="S-Sign" transform="translate(-12199 -775)" opacity="0.05" clip-path="url(#clip-path)">
    <g id="Group_201" data-name="Group 201" transform="matrix(0.839, 0.545, -0.545, 0.839, 11997.011, 283.696)" opacity="0.7">
      <g id="Group_200" data-name="Group 200" transform="translate(676.391 24.1)">
        <path id="Path_405" data-name="Path 405" d="M1262.785,295.325Q1175.241,72.2,991.57,72.174q-80.7,0-120.158,28.323Q831.9,128.82,831.931,171.733q0,25.75,12.016,40.34,11.989,14.6,18.881,21.457,6.84,6.879,22.316,14.59,15.448,7.724,25.748,12.016t31.755,11.158q21.445,6.88,31.757,8.583,116.711,29.209,168.222,50.638a575.164,575.164,0,0,1,97.843,52.355q94.384,65.256,94.41,210.277,0,145.076-85.828,219.718-85.853,74.67-235.166,74.67-106.453,0-205.986-49.781-20.6-13.717-32.615-13.731-37.777,0-73.811,63.512" transform="translate(-680.875 -32.693)" fill="none" stroke="#ec2424" stroke-width="5"/>
        <path id="Path_406" data-name="Path 406" d="M701.474,867.839c23.4-36.776,47.489-54.453,72.218-52.051,7.983.775,18.685,5.978,32.088,15.285a440.271,440.271,0,0,0,50.3,23.695,425.559,425.559,0,0,0,157.593,29.915q150.949,0,231.413-76.977a209.26,209.26,0,0,0,48.715-70.868q25.508-59.893,20.253-142.859c-.621-10.44-1.672-20.544-3.058-30.329-10.838-76.525-43.65-133.914-99.149-172.08q-3.622-2.4-7.267-4.759a765.2,765.2,0,0,0-89.123-49.18c-26.77-12.616-65.827-27.121-117.008-44.19-13.3-4.436-27.344-9.135-42.226-13.8q-9.535-2.61-29.44-10.041c-13.278-4.96-22.976-9.168-29.222-12.451-6.223-3.272-14.081-7.534-23.5-12.885q-14.142-7.991-20.164-15.133c-4-4.779-9.685-11.911-16.732-21.577-7.095-9.731-10.278-23.085-9.526-39.794,1.27-28.229,15.45-51.612,42.018-70.128q40.8-28.2,121.375-28.2,110.366,0,187.485,80.442a364.948,364.948,0,0,1,38.064,46.71c6.889,9.893,13.727,19.917,19.9,30.465,9.431,16.115,18.079,33.329,26.407,51.373" transform="translate(-680.875 -32.203)" fill="none" stroke="#ec2424" stroke-width="5"/>
        <path id="Path_407" data-name="Path 407" d="M701.474,848.146c22.761-31.231,46.4-45.338,70.624-40.592,7.991,1.566,18.488,7.371,31.561,16.841a399.137,399.137,0,0,0,50.122,25.512q75.779,31.924,159.675,31.926c101.706,0,177.763-26.248,227.657-79.283,20.049-21.312,34.174-45.032,42.606-70.95,13.345-38.692,16.3-84.258,9.5-136.788-1.281-9.893-2.938-19.466-4.9-28.746-15.341-72.663-49.884-128.027-105.106-165.795q-3.622-2.4-7.261-4.748c-28.8-18.613-58.2-35.191-87.675-50.775-26.275-13.891-63.41-29.939-111.007-49.416-12.462-5.1-25.464-10.6-39.238-15.934q-8.771-3.533-27.125-11.5c-12.233-5.361-21.059-10.031-26.687-13.745-5.579-3.682-12.7-8.223-21.246-13.754s-14.591-10.712-18.014-15.676c-3.438-4.987-8.5-12.1-14.583-21.7-6.191-9.758-8.526-23.007-7.034-39.248,2.559-27.884,17.691-50.97,44.556-69.018,28.015-18.82,68.941-28.074,122.593-28.074q108.613,0,186.544,77.71c14.3,13.77,26.918,28.85,38.846,44.512,7.094,9.316,14.325,18.246,20.519,27.633,9.5,14.394,18.056,29.581,26.593,44.973" transform="translate(-680.875 -31.712)" fill="none" stroke="#ec2424" stroke-width="5"/>
        <path id="Path_408" data-name="Path 408" d="M701.474,828.451c22.125-25.685,45.337-36.156,69.031-29.132,8.011,2.375,18.292,8.764,31.034,18.395a367.382,367.382,0,0,0,49.945,27.33q75.76,33.938,161.757,33.937c102.778,0,177.672-26.959,223.9-81.59,18.658-22.049,30.71-45.819,36.5-71.032,9.682-37.455,8.967-80.962-1.248-130.715-1.919-9.346-4.2-18.383-6.738-27.163-19.84-68.763-56.118-122.14-111.062-159.509q-3.623-2.389-7.256-4.737c-28.836-18.653-57.842-35.643-86.229-52.37-25.781-15.191-61.026-32.807-105.006-54.642-11.634-5.776-23.583-12.059-36.25-18.064-5.338-2.969-13.635-7.254-24.809-12.957-11.21-5.722-19.138-10.886-24.153-15.039-4.931-4.083-11.323-8.9-19-14.624s-13.016-11.065-15.861-16.218c-2.872-5.2-7.31-12.32-12.434-21.817-5.292-9.807-6.758-22.935-4.544-38.7,3.869-27.555,19.975-50.268,47.094-67.908,28.875-18.783,70.234-27.95,123.81-27.95q106.862,0,185.6,74.979c14.828,13.441,27.583,27.912,39.627,42.313,7.312,8.745,14.914,16.558,21.138,24.8,9.553,12.653,18.032,25.835,26.778,38.573" transform="translate(-680.875 -31.222)" fill="none" stroke="#ec2424" stroke-width="5"/>
        <path id="Path_409" data-name="Path 409" d="M701.474,808.756c21.49-20.138,44.288-26.9,67.438-17.671,8.036,3.2,18.095,10.156,30.508,19.949a342.69,342.69,0,0,0,49.769,29.149q75.741,35.95,163.838,35.948c103.851,0,177.575-27.69,220.147-83.9,17.265-22.794,27.246-46.606,30.39-71.114,6.021-36.217,1.645-77.653-12-124.642-2.554-8.8-5.468-17.295-8.576-25.58-24.324-64.821-62.354-116.252-117.021-153.224q-3.623-2.38-7.25-4.725c-28.87-18.692-57.477-36.128-84.781-53.965-25.288-16.52-58.669-35.744-99.005-59.868-10.815-6.468-21.7-13.522-33.263-20.194-4.828-3.583-12.366-8.339-22.492-14.415-10.179-6.108-17.215-11.728-21.62-16.333-4.281-4.473-9.945-9.574-16.744-15.493-6.777-5.9-11.44-11.422-13.71-16.761-2.3-5.418-6.116-12.557-10.284-21.936-4.391-9.882-4.974-22.87-2.053-38.158,5.2-27.236,22.266-49.558,49.632-66.8C894.138,70.288,935.924,61.2,989.424,61.2q105.109,0,184.662,72.249c15.359,13.114,28.277,26.972,40.408,40.115,7.546,8.176,15.489,14.852,21.756,21.969,9.59,10.889,18.009,22.088,26.963,32.173" transform="translate(-680.875 -30.732)" fill="none" stroke="#ec2424" stroke-width="5"/>
        <path id="Path_410" data-name="Path 410" d="M701.474,789.062c20.855-14.591,43.233-17.587,65.845-6.211,8.061,4.056,17.9,11.548,29.981,21.5a323.174,323.174,0,0,0,49.592,30.967q75.723,37.964,165.921,37.959c104.924,0,177.468-28.44,216.393-86.2,15.867-23.547,23.782-47.394,24.28-71.2,2.361-34.98-5.657-74.334-22.748-118.57-3.186-8.245-6.728-16.2-10.416-24-28.782-60.838-68.588-110.366-122.978-146.939q-3.624-2.37-7.244-4.715c-28.906-18.731-57.1-36.644-83.335-55.56-24.787-17.875-56.324-38.76-93-65.094-10-7.18-19.822-14.984-30.275-22.324-4.318-4.2-11.1-9.426-20.177-15.873-9.149-6.5-15.292-12.559-19.085-17.626A179.955,179.955,0,0,0,829.73,228.82c-5.894-6.082-9.862-11.783-11.559-17.3-1.734-5.64-4.909-12.819-8.134-22.056-3.484-9.982-3.172-22.807.437-37.613,6.564-26.926,24.563-48.839,52.17-65.689,30.613-18.685,72.82-27.7,126.245-27.7q103.357,0,183.72,69.518c15.89,12.785,29,26.022,41.189,37.916,7.8,7.609,16.04,13.126,22.376,19.138,9.594,9.1,17.986,18.339,27.147,25.772" transform="translate(-680.875 -30.241)" fill="none" stroke="#ec2424" stroke-width="5"/>
        <path id="Path_411" data-name="Path 411" d="M701.474,769.368c20.219-9.046,42.16-8.218,64.251,5.249,8.079,4.925,17.7,12.941,29.454,23.058A307.5,307.5,0,0,0,844.6,830.459q75.7,39.977,168,39.97c106,0,177.346-29.207,212.637-88.51,14.466-24.307,20.318-48.181,18.173-71.277-1.3-33.743-12.938-71.009-33.5-112.5-3.812-7.692-7.984-15.1-12.256-22.415-33.2-56.822-74.823-104.478-128.935-140.654q-3.624-2.362-7.239-4.7c-28.94-18.771-56.717-37.191-81.888-57.156-24.275-19.254-53.97-41.863-87-70.32-9.188-7.914-17.942-16.446-27.288-24.454-3.809-4.811-9.832-10.519-17.861-17.331-8.121-6.89-13.377-13.38-16.551-18.921a141.628,141.628,0,0,0-12.242-17.231c-5.011-6.262-8.28-12.149-9.407-17.847-1.161-5.865-3.684-13.1-5.985-22.177-2.563-10.107-1.35-22.745,2.929-37.066,7.953-26.62,26.865-48.113,54.708-64.581C892.381,64.665,935,55.713,988.351,55.713q101.607,0,182.781,66.788c16.419,12.456,29.758,25.061,41.969,35.717,8.066,7.039,16.557,11.383,22.994,16.306,9.55,7.3,17.962,14.593,27.333,19.372" transform="translate(-680.875 -29.751)" fill="none" stroke="#ec2424" stroke-width="5"/>
        <path id="Path_412" data-name="Path 412" d="M701.474,749.674c19.584-3.5,41.061,1.195,62.658,16.709,8.088,5.81,17.5,14.333,28.927,24.612a294.969,294.969,0,0,0,49.24,34.6q75.685,41.99,170.084,41.982c107.069,0,177.208-29.991,208.882-90.817,13.055-25.072,16.853-48.968,12.063-71.359-4.962-32.506-20.19-67.684-44.249-106.425-4.434-7.14-9.232-14-14.095-20.833-37.569-52.78-81.056-98.59-134.892-134.368q-3.624-2.354-7.232-4.693c-28.974-18.811-56.314-37.764-80.44-58.751-23.751-20.66-51.586-45.058-81-75.546-8.368-8.672-16.061-17.908-24.3-26.584-3.3-5.426-8.565-11.616-15.545-18.789-7.092-7.289-11.47-14.191-14.016-20.214a124.668,124.668,0,0,0-9.991-18.1c-4.129-6.439-6.694-12.515-7.257-18.389-.583-6.09-2.432-13.409-3.835-22.3-1.619-10.254.488-22.682,5.418-36.521,9.375-26.311,29.173-47.38,57.245-63.471,32.374-18.557,75.4-27.452,128.678-27.452q99.854,0,181.84,64.057c16.949,12.128,30.551,24.083,42.75,33.519,8.354,6.462,17.028,9.629,23.614,13.473,9.435,5.507,17.938,10.845,27.517,12.971" transform="translate(-680.875 -29.26)" fill="none" stroke="#ec2424" stroke-width="5"/>
        <path id="Path_413" data-name="Path 413" d="M701.474,729.979c18.949,2.047,39.93,10.638,61.065,28.169,8.084,6.706,17.307,15.726,28.4,26.168A284.9,284.9,0,0,0,840,820.737q75.666,44,172.166,43.993c108.142,0,177.052-30.786,205.127-93.123,11.64-25.843,13.39-49.756,5.955-71.441-8.623-31.269-27.417-64.37-55-100.353-5.051-6.59-10.474-12.9-15.935-19.25-41.879-48.727-87.292-92.7-140.849-128.083q-3.626-2.344-7.227-4.681c-29.009-18.851-55.894-38.362-78.994-60.346-23.208-22.088-49.148-48.332-75-80.772-7.533-9.453-14.181-19.371-21.313-28.714-2.79-6.039-7.3-12.719-13.229-20.247a63.775,63.775,0,0,1-11.483-21.508,121.355,121.355,0,0,0-7.74-18.97c-3.249-6.611-5.1-12.881-5.1-18.931,0-6.318-1.151-13.729-1.686-22.418-.642-10.417,2.345-22.615,7.909-35.975,10.828-26,31.484-46.639,59.783-62.363,33.261-18.48,76.7-27.327,129.9-27.327q98.1,0,180.9,61.326c17.48,11.8,31.375,23.08,43.531,31.321,8.663,5.873,17.442,7.886,24.232,10.641,9.24,3.747,17.917,7.1,27.7,6.571" transform="translate(-680.875 -28.77)" fill="none" stroke="#ec2424" stroke-width="5"/>
        <path id="Path_414" data-name="Path 414" d="M701.474,710.286c18.314,7.592,38.769,20.1,59.472,39.629,8.068,7.611,17.11,17.119,27.874,27.722a276.892,276.892,0,0,0,48.887,38.239q75.647,46.016,174.248,46c109.215,0,176.874-31.589,201.372-95.43,10.214-26.618,9.926-50.543-.153-71.522-12.285-30.032-34.62-61.071-65.75-94.28-5.663-6.042-11.708-11.792-17.774-17.668-46.13-44.678-93.526-86.816-146.806-121.8q-3.626-2.336-7.221-4.67c-29.043-18.89-55.452-38.978-77.546-61.94a580.528,580.528,0,0,1-69-86c-6.678-10.251-12.3-20.833-18.325-30.845-2.281-6.653-6.025-13.827-10.914-21.706a64.539,64.539,0,0,1-8.948-22.8,130.841,130.841,0,0,0-5.489-19.839c-2.373-6.78-3.51-13.248-2.954-19.474.585-6.545.165-14.052.463-22.537.373-10.586,4.218-22.541,10.4-35.43,12.313-25.668,33.8-45.891,62.322-61.253,34.153-18.4,77.99-27.2,131.113-27.2q96.349,0,179.958,58.6c18.011,11.472,32.229,22.047,44.313,29.122,8.99,5.265,17.8,6.188,24.85,7.809,8.969,2.063,17.893,3.351,27.887.171" transform="translate(-680.875 -28.28)" fill="none" stroke="#ec2424" stroke-width="5"/>
        <path id="Path_415" data-name="Path 415" d="M701.474,690.591a435.48,435.48,0,0,1,57.878,51.089c8.039,8.521,16.914,18.511,27.347,29.276a270.4,270.4,0,0,0,48.711,40.057q75.627,48.028,176.329,48.014c110.288,0,176.676-32.4,197.617-97.737,8.78-27.394,6.462-51.331-6.262-71.6-15.946-28.8-41.8-57.8-76.5-88.208-6.273-5.5-12.936-10.69-19.614-16.085-50.325-40.648-99.76-80.929-152.763-115.512q-3.627-2.328-7.215-4.66c-29.079-18.93-54.99-39.611-76.1-63.536a460.721,460.721,0,0,1-63-91.224c-5.8-11.061-10.42-22.3-15.338-32.974a125.765,125.765,0,0,0-8.6-23.164,69.07,69.07,0,0,1-6.415-24.095,157.874,157.874,0,0,0-3.237-20.709,52.167,52.167,0,0,1-.8-20.017c1.173-6.769,1.511-14.37,2.612-22.657,1.428-10.748,6.105-22.459,12.891-34.885,13.828-25.322,36.117-45.135,64.859-60.144,35.049-18.3,79.283-27.078,132.33-27.078q94.6,0,179.017,55.865c18.542,11.144,33.106,20.976,45.094,26.924,9.335,4.631,18.531,2.557,25.469,4.977,8.188,2.856,17.87-.4,28.072-6.229" transform="translate(-680.875 -27.789)" fill="none" stroke="#ec2424" stroke-width="5"/>
        <path id="Path_416" data-name="Path 416" d="M701.474,670.9c17.043,18.685,36.358,39.046,56.285,62.549,8,9.435,16.717,19.9,26.821,30.831a265.3,265.3,0,0,0,48.534,41.875q75.609,50.041,178.41,50.026c111.362,0,176.458-33.208,193.863-100.043,7.336-28.172,3-52.118-12.37-71.685-19.608-27.559-48.98-54.547-87.251-82.137-6.88-4.959-14.156-9.591-21.454-14.5-54.473-36.65-105.995-75.042-158.72-109.227q-3.627-2.32-7.21-4.648c-29.114-18.969-54.5-40.255-74.652-65.131a386.16,386.16,0,0,1-57-96.45c-4.886-11.876-8.54-23.758-12.351-35.1a160.559,160.559,0,0,0-6.281-24.622,77.853,77.853,0,0,1-3.881-25.389c.07-7.013-.332-14.217-.986-21.577a61.285,61.285,0,0,1,1.348-20.56c1.765-6.992,2.885-14.676,4.763-22.777,2.524-10.893,8-22.365,15.382-34.339,15.371-24.953,38.438-44.375,67.4-59.034C888.072,50.752,932.7,42,985.669,42q92.846,0,178.076,53.134c19.073,10.814,34,19.867,45.875,24.725,9.692,3.965,18.492,1.114,26.088,2.145,8.344,1.133,17.846-4.143,28.257-12.629" transform="translate(-680.875 -27.299)" fill="none" stroke="#ec2424" stroke-width="5"/>
        <path id="Path_417" data-name="Path 417" d="M701.474,651.2c16.408,24.232,35.116,48.521,54.692,74.01,7.949,10.35,16.52,21.3,26.294,32.385a261.368,261.368,0,0,0,48.357,43.694q75.59,52.054,180.493,52.036c112.435,0,176.218-34.017,190.108-102.35,5.884-28.948-.466-52.906-18.479-71.767-23.27-26.322-56.152-51.327-98-76.064-7.487-4.426-15.372-8.5-23.293-12.919-58.586-32.692-112.229-69.154-164.677-102.942q-3.626-2.31-7.2-4.637c-29.148-19.009-54-40.908-73.2-66.727-20.809-27.971-38.591-61.8-51-101.676-3.948-12.688-6.659-25.22-9.363-37.234a238.913,238.913,0,0,0-3.965-26.081,92.224,92.224,0,0,1-1.347-26.682c.661-7.383,1.026-14.877,1.264-22.446a75.1,75.1,0,0,1,3.5-21.1c2.359-7.212,4.279-14.961,6.912-22.9,3.654-11.011,9.916-22.259,17.873-33.794C797.375,99.452,821.2,80.4,850.368,66.083,887.222,48,932.237,39.253,985.133,39.253q91.094,0,177.136,50.4c19.6,10.487,34.9,18.715,46.655,22.527,10.058,3.26,18.877,1.608,26.707-.687,8.133-2.384,17.822-7.89,28.441-19.029" transform="translate(-680.875 -26.809)" fill="none" stroke="#ec2424" stroke-width="5"/>
        <path id="Path_418" data-name="Path 418" d="M701.474,631.508c15.772,29.777,33.853,57.992,53.1,85.469,7.89,11.264,16.323,22.689,25.767,33.94q22.605,27.216,48.181,45.511Q904.093,850.5,1011.1,850.476c113.507,0,175.958-34.82,186.353-104.656,4.423-29.724-3.931-53.693-24.589-71.85-26.93-25.084-63.329-48.129-108.752-69.991-8.1-3.9-16.586-7.413-25.133-11.337-62.677-28.777-118.464-63.268-170.634-96.657q-3.628-2.3-7.2-4.626c-29.183-19.048-53.468-41.565-71.758-68.322-20.145-29.47-35.756-65.139-45-106.9-2.985-13.491-4.779-26.682-6.375-39.364-.242-9.11-.869-18.284-1.65-27.538a114.426,114.426,0,0,1,1.187-27.977c1.25-7.758,2.38-15.54,3.515-23.315a95.781,95.781,0,0,1,5.652-21.645c2.953-7.432,5.685-15.224,9.061-23.018,4.808-11.1,11.833-22.139,20.364-33.248C794.673,95.9,819.231,77.2,848.615,63.215,886.376,45.247,931.777,36.51,984.6,36.51q89.341,0,176.195,47.673c20.133,10.158,35.79,17.522,47.436,20.328,10.423,2.511,19.357.222,27.325-3.519,7.994-3.752,17.8-11.637,28.626-25.43" transform="translate(-680.875 -26.318)" fill="none" stroke="#ec2424" stroke-width="5"/>
        <path id="Path_419" data-name="Path 419" d="M701.474,611.814a659.437,659.437,0,0,0,51.505,96.929,422.961,422.961,0,0,0,25.24,35.494q22.419,28.348,48,47.33,75.552,56.081,184.656,56.059c114.58,0,175.683-35.615,182.6-106.963,2.956-30.495-7.394-54.481-30.7-71.931-30.593-23.847-70.516-44.952-119.5-63.919-8.706-3.37-17.8-6.332-26.973-9.754-66.759-24.9-124.7-57.38-176.591-90.371q-3.628-2.294-7.193-4.615c-29.218-19.087-52.917-42.224-70.311-69.916-19.454-30.975-32.867-68.429-39-112.128a403.4,403.4,0,0,1-3.388-41.495c.267-9.724.436-19.391.666-29a148.638,148.638,0,0,1,3.722-29.27c1.838-8.138,3.733-16.207,5.766-24.185a127.211,127.211,0,0,1,7.8-22.188c3.548-7.648,7.1-15.46,11.211-23.137a188.6,188.6,0,0,1,22.854-32.7C791.988,92.384,817.267,74,846.862,60.347c38.67-17.839,84.454-26.581,137.2-26.581q87.589,0,175.253,44.942c20.664,9.83,36.667,16.29,48.217,18.13,10.778,1.716,19.913-1.159,27.945-6.352,7.938-5.132,17.775-15.384,28.812-31.83" transform="translate(-680.875 -25.828)" fill="none" stroke="#ec2424" stroke-width="5"/>
        <path id="Path_420" data-name="Path 420" d="M701.42,592.119c14.5,40.87,31.278,76.916,49.912,108.39a388.926,388.926,0,0,0,24.713,37.049q22.234,29.479,47.829,49.148,75.534,58.093,186.738,58.069,173.479,0,178.843-109.27,2.139-46.9-36.805-72.012-51.379-33.915-130.252-57.846c-9.319-2.847-19.01-5.256-28.813-8.171-70.84-21.068-130.933-51.492-182.548-84.086q-3.629-2.284-7.187-4.6C774.6,489.657,751.5,465.9,734.987,437.272c-18.738-32.481-29.943-71.666-32.994-117.354a393.232,393.232,0,0,1-.4-43.624c.777-10.339,1.744-20.493,2.983-30.454a202.91,202.91,0,0,1,6.256-30.565c2.426-8.521,5.069-16.882,8.017-25.054a175.89,175.89,0,0,1,9.954-22.731c4.155-7.855,8.5-15.674,13.359-23.257a222.712,222.712,0,0,1,25.345-32.158c21.754-23.176,47.766-41.22,77.548-54.6Q904.472,31.023,983.47,31.023q85.836,0,174.312,42.212c21.194,9.5,37.515,15.025,49,15.931a38.64,38.64,0,0,0,28.563-9.184c7.946-6.544,17.752-19.131,29-38.23" transform="translate(-680.821 -25.337)" fill="none" stroke="#ec2424" stroke-width="5"/>
        <path id="Path_421" data-name="Path 421" d="M696.99,571.679Q741.607,721.02,817.149,781.1q75.514,60.107,188.82,60.08,175.088,0,175.088-111.576,0-48.037-42.913-72.094-66.946-37.739-171.655-58.363-116.753-30.9-195.686-82.395-94.423-61.795-94.41-195.686t82.394-213.71q82.4-79.821,219.719-79.82,84.084,0,173.371,39.48,32.587,13.76,49.78,13.733a39.743,39.743,0,0,0,29.182-12.015q11.988-11.99,29.181-44.631" transform="translate(-676.391 -24.1)" fill="none" stroke="#ec2424" stroke-width="5"/>
      </g>
      <line id="Line_23" data-name="Line 23" x1="2.464" y2="261.979" transform="translate(1257.927 24.429)" fill="none" stroke="#ec2424" stroke-width="5"/>
      <line id="Line_24" data-name="Line 24" y2="307.969" transform="translate(697.012 571.382)" fill="none" stroke="#ec2424" stroke-width="5"/>
    </g>
  </g>
</svg>
