<svg xmlns="http://www.w3.org/2000/svg" width="39.784" height="52" viewBox="0 0 39.784 52">
  <path id="snack" d="M322.742,624h1.622a.755.755,0,0,0,.181.078,7.036,7.036,0,0,1,4.13,2.177.91.91,0,0,0,.615.191,6.852,6.852,0,0,1,6.332,3.377,1.164,1.164,0,0,0,.76.566,6.74,6.74,0,0,1,5.024,4.922c.138.477.194.978.286,1.458,1.1.1,1.726.586,1.74,1.431a2,2,0,0,1-.271,1,1.644,1.644,0,0,1-1.532.673c-.016.133-.027.215-.036.3q-.624,5.313-1.249,10.626-.687,5.816-1.378,11.631c-.464,3.928-.942,7.854-1.376,11.785A2,2,0,0,1,336.426,676H310.578a1.775,1.775,0,0,1-1.113-1.384q-.5-4.281-1.009-8.561-.633-5.389-1.261-10.778-.638-5.439-1.282-10.877c-.178-1.507-.358-3.014-.536-4.51-1.146-.171-1.708-.682-1.726-1.537-.019-.9.527-1.4,1.779-1.609a.98.98,0,0,0,.048-.188,6.954,6.954,0,0,1,5.484-6.25.717.717,0,0,0,.4-.315,6.923,6.923,0,0,1,6.55-3.539.825.825,0,0,0,.551-.23,7.19,7.19,0,0,1,3.253-1.969C322.056,624.156,322.4,624.083,322.742,624ZM308.56,636.775h30.013a4.4,4.4,0,0,0-.04-.468,3.865,3.865,0,0,0-3.527-3.063,1.724,1.724,0,0,1-1.681-1.209,3.84,3.84,0,0,0-4.622-2.412,1.515,1.515,0,0,1-1.833-.7,3.867,3.867,0,0,0-6.634,0,1.534,1.534,0,0,1-1.785.723,3.845,3.845,0,0,0-4.713,2.486,1.626,1.626,0,0,1-1.536,1.112,4.572,4.572,0,0,0-.8.113A3.752,3.752,0,0,0,308.56,636.775Zm10.909,36.163c-.256-11.054-.51-22.057-.765-33.068H315.09l2.329,33.068Zm15.2-.007,3.893-33.066h-3.605q-1.166,16.536-2.331,33.066ZM308.439,639.87q1.948,16.553,3.89,33.05h2.04q-1.167-16.564-2.328-33.05Zm13.308-.006q.384,16.58.765,33.059h1.971q.386-16.549.77-33.059Zm6.662,0q-.4,16.577-.8,33.068h1.969q1.166-16.545,2.331-33.068Z" transform="translate(-303.649 -624)" fill="#696b75"/>
</svg>
